<?xml version="1.0" encoding="UTF-8"?>
<!DOCTYPE svg PUBLIC "-//W3C//DTD SVG 1.1//EN" "http://www.w3.org/Graphics/SVG/1.1/DTD/svg11.dtd">
<!-- File created by Marietta Hamberger, 2025. Licensed under CC BY 4.0 -->
<svg xmlns="http://www.w3.org/2000/svg" xmlns:xlink="http://www.w3.org/1999/xlink" version="1.1" width="201px" height="200px" viewBox="-0.5 -0.5 201 200"><defs/><g><g data-cell-id="0"><g data-cell-id="1"><g data-cell-id="nQlFAY2Xk8XFylfm_unI-1"><g><rect x="0" y="0" width="200" height="200" rx="30" ry="30" fill="none" stroke="none" pointer-events="all"/></g></g><g data-cell-id="Eh7-Xn-ZU9annolcxltJ-2"><g><rect x="85" y="150.5" width="70" height="30" rx="15" ry="15" fill="#ffffff" stroke="none" transform="rotate(30,120,165.5)" pointer-events="all"/></g></g><g data-cell-id="Eh7-Xn-ZU9annolcxltJ-3"><g><rect x="102.65" y="126" width="110" height="30" rx="15" ry="15" fill="#ffffff" stroke="none" transform="rotate(-60,157.65,141)" pointer-events="all"/></g></g><g data-cell-id="Eh7-Xn-ZU9annolcxltJ-4"><g><path d="M 61 7 L 109 7 L 134 32 L 134 99 L 61 99 L 61 7 Z" fill-opacity="0.8" fill="rgb(255, 255, 255)" stroke="none" pointer-events="all"/><path d="M 109 7 L 109 32 L 134 32 Z" fill-opacity="0.16000000000000003" fill="#000000" stroke="none" pointer-events="all"/><path d="M 109 7 L 109 32 L 134 32" fill="none" stroke="none" pointer-events="all"/></g></g><g data-cell-id="nQlFAY2Xk8XFylfm_unI-2"><g><path d="M 20 24 L 67 24 L 101 58 L 101 130 L 20 130 L 20 24 Z" fill="rgb(255, 255, 255)" stroke="none" pointer-events="all"/><path d="M 67 24 L 67 58 L 101 58 Z" fill-opacity="0.2" fill="#000000" stroke="none" pointer-events="all"/><path d="M 67 24 L 67 58 L 101 58" fill="none" stroke="none" pointer-events="all"/></g></g></g></g></g></svg>
