<?xml version="1.0" encoding="UTF-8"?>
<!DOCTYPE svg PUBLIC "-//W3C//DTD SVG 1.1//EN" "http://www.w3.org/Graphics/SVG/1.1/DTD/svg11.dtd">
<!-- File created by Marietta Hamberger, 2025. Licensed under CC BY 4.0 -->
<svg xmlns="http://www.w3.org/2000/svg" xmlns:xlink="http://www.w3.org/1999/xlink" version="1.1" width="360px" height="360px" viewBox="-0.5 -0.5 360 360"><defs><radialGradient x1="0%" y1="0%" x2="0%" y2="0%" id="mx-gradient-a3d2d9-1-00595e-1-r-0"><stop offset="0%" style="stop-color: rgb(163, 210, 217); stop-opacity: 1;"/><stop offset="100%" style="stop-color: rgb(0, 89, 94); stop-opacity: 1;"/></radialGradient><radialGradient x1="0%" y1="0%" x2="0%" y2="0%" id="mx-gradient-ffffff-1-a3d2d9-1-r-0"><stop offset="0%" style="stop-color: rgb(255, 255, 255); stop-opacity: 1;"/><stop offset="100%" style="stop-color: rgb(163, 210, 217); stop-opacity: 1;"/></radialGradient><radialGradient x1="0%" y1="0%" x2="0%" y2="0%" id="mx-gradient-bac8d3-1-00828a-1-r-0"><stop offset="0%" style="stop-color: rgb(186, 200, 211); stop-opacity: 1;"/><stop offset="100%" style="stop-color: rgb(0, 130, 138); stop-opacity: 1;"/></radialGradient></defs><g><g data-cell-id="0"><g data-cell-id="1"><g data-cell-id="314HliWLVjy1xjtwp5ei-1"><g><rect x="0" y="0" width="360" height="360" rx="10.8" ry="10.8" fill="none" stroke="none" pointer-events="all"/></g></g><g data-cell-id="76BnrFi6wQpJAAebqJh_-20"><g/><g data-cell-id="76BnrFi6wQpJAAebqJh_-6"><g><path d="M 17 13 L 225 13 L 287 75 L 287 343 L 17 343 L 17 13 Z" fill="rgb(255, 255, 255)" stroke="rgb(0, 0, 0)" stroke-miterlimit="10" pointer-events="all"/><path d="M 225 13 L 225 75 L 287 75 Z" fill-opacity="0.05" fill="#000000" stroke="none" pointer-events="all"/><path d="M 225 13 L 225 75 L 287 75" fill="none" stroke="rgb(0, 0, 0)" stroke-miterlimit="10" pointer-events="all"/></g></g><g data-cell-id="76BnrFi6wQpJAAebqJh_-7"><g><rect x="50" y="55" width="96" height="106" fill="#a3d2d9" stroke="none" pointer-events="all"/></g></g><g data-cell-id="76BnrFi6wQpJAAebqJh_-9"><g><ellipse cx="77" cy="79" rx="15" ry="15" fill="rgb(255, 255, 255)" stroke="none" pointer-events="all"/></g></g><g data-cell-id="76BnrFi6wQpJAAebqJh_-10"><g><path d="M 67 104 Q 107 104 107 139 Q 107 174 67 174 Z" fill="rgb(255, 255, 255)" stroke="none" transform="rotate(-90,87,139)" pointer-events="all"/></g></g><g data-cell-id="76BnrFi6wQpJAAebqJh_-11"><g><path d="M 89.15 104.16 Q 146.15 104.16 146.15 130.57 Q 146.15 156.98 89.15 156.98 Z" fill="rgb(255, 255, 255)" stroke="none" transform="rotate(-90,117.65,130.57)" pointer-events="all"/></g></g><g data-cell-id="76BnrFi6wQpJAAebqJh_-14"><g><rect x="50" y="179" width="170" height="20" rx="3" ry="3" fill="#a3d2d9" stroke="none" pointer-events="all"/></g></g><g data-cell-id="76BnrFi6wQpJAAebqJh_-15"><g><rect x="50" y="214.57" width="132" height="20" rx="3" ry="3" fill="#a3d2d9" stroke="none" pointer-events="all"/></g></g><g data-cell-id="76BnrFi6wQpJAAebqJh_-16"><g><rect x="50" y="254" width="202" height="20" rx="3" ry="3" fill="#a3d2d9" stroke="none" pointer-events="all"/></g></g><g data-cell-id="76BnrFi6wQpJAAebqJh_-17"><g><rect x="50" y="294" width="202" height="20" rx="3" ry="3" fill="#a3d2d9" stroke="none" pointer-events="all"/></g></g><g data-cell-id="76BnrFi6wQpJAAebqJh_-18"><g><rect x="162" y="104" width="90" height="20" rx="3" ry="3" fill="#a3d2d9" stroke="none" pointer-events="all"/></g></g><g data-cell-id="76BnrFi6wQpJAAebqJh_-19"><g><rect x="162" y="141" width="90" height="20" rx="3" ry="3" fill="#a3d2d9" stroke="none" pointer-events="all"/></g></g></g><g data-cell-id="76BnrFi6wQpJAAebqJh_-1"><g><path d="M 218.37 210.57 C 218.37 208.36 227.02 206.57 237.68 206.57 C 242.81 206.57 247.72 206.99 251.34 207.74 C 254.97 208.49 257 209.51 257 210.57 L 257 239 C 257 240.06 254.97 241.08 251.34 241.83 C 247.72 242.58 242.81 243 237.68 243 C 232.56 243 227.65 242.58 224.03 241.83 C 220.4 241.08 218.37 240.06 218.37 239 Z" fill="url(#mx-gradient-a3d2d9-1-00595e-1-r-0)" stroke="#0e8088" stroke-miterlimit="10" transform="rotate(-45,237.68,224.79)" pointer-events="all"/><path d="M 257 210.57 C 257 211.63 254.97 212.65 251.34 213.4 C 247.72 214.15 242.81 214.57 237.68 214.57 C 232.56 214.57 227.65 214.15 224.03 213.4 C 220.4 212.65 218.37 211.63 218.37 210.57" fill="none" stroke="#0e8088" stroke-miterlimit="10" transform="rotate(-45,237.68,224.79)" pointer-events="all"/></g></g><g data-cell-id="76BnrFi6wQpJAAebqJh_-2"><g><ellipse cx="177.5" cy="163.5" rx="79.5" ry="79.5" fill="url(#mx-gradient-ffffff-1-a3d2d9-1-r-0)" stroke="#00828a" stroke-width="21" pointer-events="all"/></g></g><g data-cell-id="76BnrFi6wQpJAAebqJh_-3"><g><path d="M 253.37 218.57 C 253.37 216.36 267.47 214.57 284.87 214.57 C 293.22 214.57 301.24 214.99 307.14 215.74 C 313.05 216.49 316.37 217.51 316.37 218.57 L 316.37 326.18 C 316.37 328.39 302.27 330.18 284.87 330.18 C 267.47 330.18 253.37 328.39 253.37 326.18 Z" fill="url(#mx-gradient-bac8d3-1-00828a-1-r-0)" stroke="none" transform="rotate(-45,284.87,272.38)" pointer-events="all"/><path d="M 316.37 218.57 C 316.37 220.78 302.27 222.57 284.87 222.57 C 267.47 222.57 253.37 220.78 253.37 218.57" fill="none" stroke="none" transform="rotate(-45,284.87,272.38)" pointer-events="all"/></g></g><g data-cell-id="76BnrFi6wQpJAAebqJh_-4"><g><ellipse cx="178.5" cy="163.5" rx="79.5" ry="79.5" fill="none" stroke="#00595e" stroke-width="8" pointer-events="all"/></g></g><g data-cell-id="76BnrFi6wQpJAAebqJh_-5"><g><path d="M 319.18 285.32 Q 339.18 285.32 339.18 316.82 Q 339.18 348.32 319.18 348.32 Z" fill="url(#mx-gradient-a3d2d9-1-00595e-1-r-0)" stroke="none" transform="rotate(45,329.18,316.82)" pointer-events="all"/></g></g></g></g></g></svg>
