<?xml version="1.0" encoding="UTF-8"?>
<!DOCTYPE svg PUBLIC "-//W3C//DTD SVG 1.1//EN" "http://www.w3.org/Graphics/SVG/1.1/DTD/svg11.dtd">
<!-- File created by Marietta Hamberger, 2025. Licensed under CC BY 4.0 -->
<svg xmlns="http://www.w3.org/2000/svg" xmlns:xlink="http://www.w3.org/1999/xlink" version="1.1" width="219px" height="219px" viewBox="-0.5 -0.5 219 219"><defs/><g><g data-cell-id="0"><g data-cell-id="1"><g data-cell-id="YYV-47abT7U_o5PSOM3m-1"><g><ellipse cx="109.5" cy="108.77" rx="109.5" ry="109.5" fill="#0f8088" stroke="none" pointer-events="all"/></g></g><g data-cell-id="YYV-47abT7U_o5PSOM3m-2"><g><path d="M 31 99.27 C 31 90.99 48.01 84.27 69 84.27 C 79.08 84.27 88.74 85.85 95.87 88.66 C 103 91.48 107 95.29 107 99.27 L 107 119.27 C 107 127.55 89.99 134.27 69 134.27 C 48.01 134.27 31 127.55 31 119.27 Z" fill="rgb(255, 255, 255)" stroke="#0f8088" stroke-width="4" stroke-miterlimit="10" pointer-events="all"/><path d="M 107 99.27 C 107 107.55 89.99 114.27 69 114.27 C 48.01 114.27 31 107.55 31 99.27" fill="none" stroke="#0f8088" stroke-width="4" stroke-miterlimit="10" pointer-events="all"/></g></g><g data-cell-id="YYV-47abT7U_o5PSOM3m-3"><g><path d="M 31 79.77 C 31 71.49 48.01 64.77 69 64.77 C 79.08 64.77 88.74 66.35 95.87 69.16 C 103 71.98 107 75.79 107 79.77 L 107 99.77 C 107 108.05 89.99 114.77 69 114.77 C 48.01 114.77 31 108.05 31 99.77 Z" fill="rgb(255, 255, 255)" stroke="#0f8088" stroke-width="4" stroke-miterlimit="10" pointer-events="all"/><path d="M 107 79.77 C 107 88.05 89.99 94.77 69 94.77 C 48.01 94.77 31 88.05 31 79.77" fill="none" stroke="#0f8088" stroke-width="4" stroke-miterlimit="10" pointer-events="all"/></g></g><g data-cell-id="YYV-47abT7U_o5PSOM3m-4"><g><path d="M 31 59.27 C 31 50.99 48.01 44.27 69 44.27 C 79.08 44.27 88.74 45.85 95.87 48.66 C 103 51.48 107 55.29 107 59.27 L 107 79.27 C 107 87.55 89.99 94.27 69 94.27 C 48.01 94.27 31 87.55 31 79.27 Z" fill="rgb(255, 255, 255)" stroke="#0f8088" stroke-width="4" stroke-miterlimit="10" pointer-events="all"/><path d="M 107 59.27 C 107 67.55 89.99 74.27 69 74.27 C 48.01 74.27 31 67.55 31 59.27" fill="none" stroke="#0f8088" stroke-width="4" stroke-miterlimit="10" pointer-events="all"/></g></g><g data-cell-id="YYV-47abT7U_o5PSOM3m-5"><g><path d="M 129 104.27 L 136.17 97.1 Q 139 94.27 143 94.27 L 175 94.27 Q 179 94.27 179 98.27 L 179 170.27 Q 179 174.27 175 174.27 L 123 174.27 Q 119 174.27 119 170.27 L 119 118.27 Q 119 114.27 121.83 111.44 Z" fill="rgb(255, 255, 255)" stroke="none" transform="translate(149,0)scale(-1,1)translate(-149,0)" pointer-events="all"/></g></g><g data-cell-id="YYV-47abT7U_o5PSOM3m-6"><g><path d="M 154.65 111.03 L 154.65 99.5 Q 154.65 96.5 156.8 98.59 L 167.5 108.95 Q 169.65 111.03 167.5 113.12 L 156.8 123.48 Q 154.65 125.57 154.65 122.57 Z" fill="#0f8088" stroke="#ffffff" stroke-miterlimit="10" transform="rotate(135,162.15,111.03)" pointer-events="all"/></g></g></g></g></g></svg>
