<?xml version="1.0" encoding="UTF-8"?>
<!DOCTYPE svg PUBLIC "-//W3C//DTD SVG 1.1//EN" "http://www.w3.org/Graphics/SVG/1.1/DTD/svg11.dtd">
<!-- File created by Marietta Hamberger, 2025. Licensed under CC BY 4.0 -->
<svg xmlns="http://www.w3.org/2000/svg" xmlns:xlink="http://www.w3.org/1999/xlink" version="1.1" width="231px" height="231px" viewBox="-0.5 -0.5 231 231"><defs/><g><g data-cell-id="0"><g data-cell-id="1"><g data-cell-id="DKoMFQA_WPLVdd7VUABK-1"><g style="filter: drop-shadow(rgba(0, 0, 0, 0.25) 2px 3px 2px);"><ellipse cx="113.5" cy="113.5" rx="109.49999999999999" ry="109.49999999999999" fill="#0f8088" stroke="none" pointer-events="all"/></g></g><g data-cell-id="DKoMFQA_WPLVdd7VUABK-19"><g><path d="M 35 104 C 35 95.72 52.01 89 73 89 C 83.08 89 92.74 90.58 99.87 93.39 C 107 96.21 111 100.02 111 104 L 111 124 C 111 132.28 93.99 139 73 139 C 52.01 139 35 132.28 35 124 Z" fill="rgb(255, 255, 255)" stroke="#0f8088" stroke-width="4" stroke-miterlimit="10" pointer-events="all"/><path d="M 111 104 C 111 112.28 93.99 119 73 119 C 52.01 119 35 112.28 35 104" fill="none" stroke="#0f8088" stroke-width="4" stroke-miterlimit="10" pointer-events="all"/></g></g><g data-cell-id="DKoMFQA_WPLVdd7VUABK-20"><g><path d="M 35 84.5 C 35 76.22 52.01 69.5 73 69.5 C 83.08 69.5 92.74 71.08 99.87 73.89 C 107 76.71 111 80.52 111 84.5 L 111 104.5 C 111 112.78 93.99 119.5 73 119.5 C 52.01 119.5 35 112.78 35 104.5 Z" fill="rgb(255, 255, 255)" stroke="#0f8088" stroke-width="4" stroke-miterlimit="10" pointer-events="all"/><path d="M 111 84.5 C 111 92.78 93.99 99.5 73 99.5 C 52.01 99.5 35 92.78 35 84.5" fill="none" stroke="#0f8088" stroke-width="4" stroke-miterlimit="10" pointer-events="all"/></g></g><g data-cell-id="DKoMFQA_WPLVdd7VUABK-21"><g><path d="M 35 64 C 35 55.72 52.01 49 73 49 C 83.08 49 92.74 50.58 99.87 53.39 C 107 56.21 111 60.02 111 64 L 111 84 C 111 92.28 93.99 99 73 99 C 52.01 99 35 92.28 35 84 Z" fill="rgb(255, 255, 255)" stroke="#0f8088" stroke-width="4" stroke-miterlimit="10" pointer-events="all"/><path d="M 111 64 C 111 72.28 93.99 79 73 79 C 52.01 79 35 72.28 35 64" fill="none" stroke="#0f8088" stroke-width="4" stroke-miterlimit="10" pointer-events="all"/></g></g><g data-cell-id="DKoMFQA_WPLVdd7VUABK-22"><g><path d="M 133 109 L 140.17 101.83 Q 143 99 147 99 L 179 99 Q 183 99 183 103 L 183 175 Q 183 179 179 179 L 127 179 Q 123 179 123 175 L 123 123 Q 123 119 125.83 116.17 Z" fill="rgb(255, 255, 255)" stroke="none" transform="translate(153,0)scale(-1,1)translate(-153,0)" pointer-events="all"/></g></g><g data-cell-id="DKoMFQA_WPLVdd7VUABK-23"><g><path d="M 158.65 115.77 L 158.65 104.23 Q 158.65 101.23 160.8 103.32 L 171.5 113.68 Q 173.65 115.77 171.5 117.85 L 160.8 128.21 Q 158.65 130.3 158.65 127.3 Z" fill="#0f8088" stroke="#ffffff" stroke-miterlimit="10" transform="rotate(135,166.15,115.77)" pointer-events="all"/></g></g></g></g></g></svg>
