<?xml version="1.0" encoding="UTF-8"?>
<!DOCTYPE svg PUBLIC "-//W3C//DTD SVG 1.1//EN" "http://www.w3.org/Graphics/SVG/1.1/DTD/svg11.dtd">
<!-- File created by Marietta Hamberger, 2025. Licensed under CC BY 4.0 -->
<svg xmlns="http://www.w3.org/2000/svg" xmlns:xlink="http://www.w3.org/1999/xlink" version="1.1" width="314px" height="314px" viewBox="-0.5 -0.5 314 314"><defs/><g><g data-cell-id="0"><g data-cell-id="1"><g data-cell-id="rdhGyVkae8-Vszl3bWEl-1"><g><rect x="0" y="0" width="314" height="314" fill="none" stroke="none" pointer-events="all"/></g></g><g data-cell-id="rdhGyVkae8-Vszl3bWEl-6"><g/><g data-cell-id="rdhGyVkae8-Vszl3bWEl-3"><g><path d="M 108.5 185.48 L 29 185.48 Q 8 185.48 18.28 167.17 L 80.22 56.79 Q 90.5 38.48 108.5 38.48 L 117.5 38.48 Q 126.5 38.48 136.78 56.79 L 198.72 167.17 Q 209 185.48 188 185.48 Z" fill="#00828a" stroke="none" transform="rotate(-180,108.5,111.98)" pointer-events="all"/></g></g><g data-cell-id="rdhGyVkae8-Vszl3bWEl-4"><g><path d="M 63.5 245.71 L 101.16 133.75 L 153.5 133.75 L 115.84 245.71 Z" fill="#00828a" stroke="none" transform="rotate(341,108.5,189.73)" pointer-events="all"/></g></g></g><g data-cell-id="cMhRDD20XXLRQq85gDnF-1"><g><path d="M 174 198 C 174 170.39 196.39 148 224 148 C 237.26 148 249.98 153.27 259.36 162.64 C 268.73 172.02 274 184.74 274 198 C 274 211.26 268.73 223.98 259.36 233.36 C 249.98 242.73 237.26 248 224 248 C 210.74 248 198.02 242.73 188.64 233.36 C 179.27 223.98 174 211.26 174 198 Z M 224 173 C 210.19 173 199 184.19 199 198 C 199 211.81 210.19 223 224 223 C 237.81 223 249 211.81 249 198 C 249 184.19 237.81 173 224 173 Z" fill="#0f8088" stroke="none" pointer-events="all"/></g></g><g data-cell-id="cMhRDD20XXLRQq85gDnF-2"><g><rect x="209" y="128" width="30" height="40" rx="4.5" ry="4.5" fill="#0f8088" stroke="none" pointer-events="all"/></g></g><g data-cell-id="cMhRDD20XXLRQq85gDnF-3"><g><rect x="209" y="228" width="30" height="40" rx="4.5" ry="4.5" fill="#0f8088" stroke="none" pointer-events="all"/></g></g><g data-cell-id="cMhRDD20XXLRQq85gDnF-4"><g/><g data-cell-id="cMhRDD20XXLRQq85gDnF-5"><g><rect x="260" y="178" width="30" height="40" rx="4.5" ry="4.5" fill="#0f8088" stroke="none" transform="rotate(90,275,198)" pointer-events="all"/></g></g><g data-cell-id="cMhRDD20XXLRQq85gDnF-6"><g><rect x="160" y="178" width="30" height="40" rx="4.5" ry="4.5" fill="#0f8088" stroke="none" transform="rotate(90,175,198)" pointer-events="all"/></g></g></g><g data-cell-id="cMhRDD20XXLRQq85gDnF-7"><g/><g data-cell-id="cMhRDD20XXLRQq85gDnF-8"><g><rect x="246" y="144" width="30" height="40" rx="4.5" ry="4.5" fill="#0f8088" stroke="none" transform="rotate(45,261,164)" pointer-events="all"/></g></g><g data-cell-id="cMhRDD20XXLRQq85gDnF-9"><g><rect x="176" y="214" width="30" height="40" rx="4.5" ry="4.5" fill="#0f8088" stroke="none" transform="rotate(45,191,234)" pointer-events="all"/></g></g></g><g data-cell-id="cMhRDD20XXLRQq85gDnF-10"><g/><g data-cell-id="cMhRDD20XXLRQq85gDnF-11"><g><rect x="245" y="213" width="30" height="40" rx="4.5" ry="4.5" fill="#0f8088" stroke="none" transform="rotate(135,260,233)" pointer-events="all"/></g></g><g data-cell-id="cMhRDD20XXLRQq85gDnF-12"><g><rect x="175" y="143" width="30" height="40" rx="4.5" ry="4.5" fill="#0f8088" stroke="none" transform="rotate(135,190,163)" pointer-events="all"/></g></g></g></g></g></g></svg>
