<?xml version="1.0" encoding="UTF-8"?>
<!DOCTYPE svg PUBLIC "-//W3C//DTD SVG 1.1//EN" "http://www.w3.org/Graphics/SVG/1.1/DTD/svg11.dtd">
<!-- File created by Marietta Hamberger, 2025. Licensed under CC BY 4.0 -->
<svg xmlns="http://www.w3.org/2000/svg" xmlns:xlink="http://www.w3.org/1999/xlink" version="1.1" width="107px" height="107px" viewBox="-0.5 -0.5 107 107"><defs/><g><g data-cell-id="0"><g data-cell-id="1"><g data-cell-id="fOJ3GLRazAVIS2xWFoNc-1"><g/><g data-cell-id="fOJ3GLRazAVIS2xWFoNc-2"><g><rect x="57" y="77" width="50" height="11" rx="1.65" ry="1.65" fill="#1ba1e2" stroke="#006eaf" stroke-width="3" transform="rotate(45,82,82.5)" pointer-events="all"/></g></g><g data-cell-id="fOJ3GLRazAVIS2xWFoNc-3"><g style="filter: drop-shadow(rgba(0, 0, 0, 0.25) 2px 3px 2px);"><ellipse cx="40" cy="40" rx="23.499999999999996" ry="23.499999999999996" fill-opacity="0.2" fill="#ffe6cc" stroke="#d79b00" stroke-width="3" pointer-events="all"/></g></g><g data-cell-id="fOJ3GLRazAVIS2xWFoNc-4"><g style="filter: drop-shadow(rgba(0, 0, 0, 0.25) 2px 3px 2px);"><path d="M 5 40 C 5 20.67 20.67 5 40 5 C 49.28 5 58.18 8.69 64.75 15.25 C 71.31 21.82 75 30.72 75 40 C 75 49.28 71.31 58.18 64.75 64.75 C 58.18 71.31 49.28 75 40 75 C 30.72 75 21.82 71.31 15.25 64.75 C 8.69 58.18 5 49.28 5 40 Z M 40 14.67 C 26.01 14.67 14.67 26.01 14.67 40 C 14.67 53.99 26.01 65.33 40 65.33 C 53.99 65.33 65.33 53.99 65.33 40 C 65.33 26.01 53.99 14.67 40 14.67 Z" fill="#1ba1e2" stroke="#006eaf" stroke-width="3" stroke-miterlimit="10" pointer-events="all"/></g></g><g data-cell-id="fOJ3GLRazAVIS2xWFoNc-5"><g><rect x="84" y="88" width="18" height="11" rx="1.65" ry="1.65" fill="#157cad" stroke="#006eaf" stroke-width="3" transform="rotate(45,93,93.5)" pointer-events="all"/></g></g><g data-cell-id="a4K8DcOBlbzraCDTQbZy-2"><g><ellipse cx="31" cy="40" rx="3.4999999999999996" ry="3.4999999999999996" fill="#1ba1e2" stroke="#006eaf" pointer-events="all"/></g></g><g data-cell-id="a4K8DcOBlbzraCDTQbZy-11"><g><ellipse cx="40" cy="40" rx="3.4999999999999996" ry="3.4999999999999996" fill="#1ba1e2" stroke="#006eaf" pointer-events="all"/></g></g><g data-cell-id="a4K8DcOBlbzraCDTQbZy-12"><g><ellipse cx="49" cy="40" rx="3.4999999999999996" ry="3.4999999999999996" fill="#1ba1e2" stroke="#006eaf" pointer-events="all"/></g></g></g></g></g></g></svg>
