<?xml version="1.0" encoding="UTF-8"?>
<!DOCTYPE svg PUBLIC "-//W3C//DTD SVG 1.1//EN" "http://www.w3.org/Graphics/SVG/1.1/DTD/svg11.dtd">
<!-- File created by Marietta Hamberger, 2025. Licensed under CC BY 4.0 -->
<svg xmlns="http://www.w3.org/2000/svg" xmlns:xlink="http://www.w3.org/1999/xlink" version="1.1" width="328px" height="219px" viewBox="-0.5 -0.5 328 219"><defs/><g><g data-cell-id="0"><g data-cell-id="1"><g data-cell-id="rNvcVVUNmBSM0BXLUMyg-1"><g><rect x="0" y="-0.8" width="328" height="219" rx="32.85" ry="32.85" fill="#0075a2" stroke="none" pointer-events="all"/></g></g><g data-cell-id="rNvcVVUNmBSM0BXLUMyg-2"><g><rect x="84.69" y="134.7" width="80" height="23" rx="11.5" ry="11.5" fill="#ffffff" stroke="none" transform="rotate(-135,124.69,146.2)" pointer-events="all"/></g></g><g data-cell-id="rNvcVVUNmBSM0BXLUMyg-3"><g><path d="M 30 33.7 L 111.69 33.7 L 141.69 63.7 L 141.69 183.7 L 30 183.7 L 30 33.7 Z" fill="#ffffff" stroke="none" pointer-events="all"/><path d="M 111.69 33.7 L 111.69 63.7 L 141.69 63.7 Z" fill-opacity="0.4" fill="#000000" stroke="none" pointer-events="all"/><path d="M 111.69 33.7 L 111.69 63.7 L 141.69 63.7" fill="none" stroke="none" pointer-events="all"/></g></g><g data-cell-id="rNvcVVUNmBSM0BXLUMyg-4"><g/><g data-cell-id="rNvcVVUNmBSM0BXLUMyg-5"><g><rect x="186" y="55.2" width="120" height="120" fill="none" stroke="none" transform="rotate(-90,246,115.2)" pointer-events="all"/></g></g><g data-cell-id="rNvcVVUNmBSM0BXLUMyg-6"><g><rect x="228" y="105.2" width="80" height="20" rx="10" ry="10" fill="#ffffff" stroke="none" transform="rotate(-135,268,115.2)" pointer-events="all"/></g></g><g data-cell-id="rNvcVVUNmBSM0BXLUMyg-7"><g><rect x="185" y="105.2" width="80" height="20" rx="10" ry="10" fill="#ffffff" stroke="none" transform="rotate(-225,225,115.2)" pointer-events="all"/></g></g></g><g data-cell-id="rNvcVVUNmBSM0BXLUMyg-8"><g><path d="M 44.69 103.5 C 44.69 81.52 62.51 63.7 84.49 63.7 C 95.05 63.7 105.17 67.89 112.63 75.36 C 120.1 82.82 124.29 92.94 124.29 103.5 C 124.29 114.06 120.1 124.18 112.63 131.64 C 105.17 139.11 95.05 143.3 84.49 143.3 C 73.93 143.3 63.81 139.11 56.35 131.64 C 48.88 124.18 44.69 114.06 44.69 103.5 Z M 84.49 80.94 C 72.03 80.94 61.93 91.04 61.93 103.5 C 61.93 115.96 72.03 126.06 84.49 126.06 C 90.47 126.06 96.21 123.68 100.44 119.45 C 104.67 115.22 107.05 109.48 107.05 103.5 C 107.05 91.04 96.95 80.94 84.49 80.94 Z" fill="#0075a2" stroke="none" pointer-events="all"/></g></g><g data-cell-id="rNvcVVUNmBSM0BXLUMyg-9"><g><rect x="98.12" y="132.68" width="51.1" height="24" fill="#0075a2" stroke="none" transform="rotate(-135,123.67,144.68)" pointer-events="all"/></g></g></g></g></g></svg>
