<?xml version="1.0" encoding="UTF-8"?>
<!DOCTYPE svg PUBLIC "-//W3C//DTD SVG 1.1//EN" "http://www.w3.org/Graphics/SVG/1.1/DTD/svg11.dtd">
<!-- File created by Marietta Hamberger, 2025. Licensed under CC BY 4.0 -->
<svg xmlns="http://www.w3.org/2000/svg" xmlns:xlink="http://www.w3.org/1999/xlink" version="1.1" width="328px" height="219px" viewBox="-0.5 -0.5 328 219"><defs/><g><g data-cell-id="0"><g data-cell-id="1"><g data-cell-id="DKD7Y8lrSHFflamW855Z-1"><g><rect x="0" y="0" width="328" height="219" rx="32.85" ry="32.85" fill="#0f8088" stroke="none" pointer-events="all"/></g></g><g data-cell-id="DKD7Y8lrSHFflamW855Z-2"><g><rect x="84.69" y="135.5" width="80" height="23" rx="11.5" ry="11.5" fill="#ffffff" stroke="none" transform="rotate(-135,124.69,147)" pointer-events="all"/></g></g><g data-cell-id="DKD7Y8lrSHFflamW855Z-3"><g><path d="M 30 34.5 L 111.69 34.5 L 141.69 64.5 L 141.69 184.5 L 30 184.5 L 30 34.5 Z" fill="#ffffff" stroke="none" pointer-events="all"/><path d="M 111.69 34.5 L 111.69 64.5 L 141.69 64.5 Z" fill-opacity="0.4" fill="#000000" stroke="none" pointer-events="all"/><path d="M 111.69 34.5 L 111.69 64.5 L 141.69 64.5" fill="none" stroke="none" pointer-events="all"/></g></g><g data-cell-id="DKD7Y8lrSHFflamW855Z-4"><g/><g data-cell-id="DKD7Y8lrSHFflamW855Z-5"><g><rect x="186" y="56" width="120" height="120" fill="none" stroke="none" transform="rotate(-90,246,116)" pointer-events="all"/></g></g><g data-cell-id="DKD7Y8lrSHFflamW855Z-6"><g><rect x="228" y="106" width="80" height="20" rx="10" ry="10" fill="#ffffff" stroke="none" transform="rotate(-135,268,116)" pointer-events="all"/></g></g><g data-cell-id="DKD7Y8lrSHFflamW855Z-7"><g><rect x="185" y="106" width="80" height="20" rx="10" ry="10" fill="#ffffff" stroke="none" transform="rotate(-225,225,116)" pointer-events="all"/></g></g></g><g data-cell-id="DKD7Y8lrSHFflamW855Z-8"><g><path d="M 44.69 104.3 C 44.69 82.32 62.51 64.5 84.49 64.5 C 95.05 64.5 105.17 68.69 112.63 76.16 C 120.1 83.62 124.29 93.74 124.29 104.3 C 124.29 114.86 120.1 124.98 112.63 132.44 C 105.17 139.91 95.05 144.1 84.49 144.1 C 73.93 144.1 63.81 139.91 56.35 132.44 C 48.88 124.98 44.69 114.86 44.69 104.3 Z M 84.49 81.74 C 72.03 81.74 61.93 91.84 61.93 104.3 C 61.93 116.76 72.03 126.86 84.49 126.86 C 90.47 126.86 96.21 124.48 100.44 120.25 C 104.67 116.02 107.05 110.28 107.05 104.3 C 107.05 91.84 96.95 81.74 84.49 81.74 Z" fill="#00828a" stroke="none" pointer-events="all"/></g></g><g data-cell-id="DKD7Y8lrSHFflamW855Z-9"><g><rect x="98.12" y="133.48" width="51.1" height="24" fill="#00828a" stroke="none" transform="rotate(-135,123.67,145.48)" pointer-events="all"/></g></g></g></g></g></svg>
