<?xml version="1.0" encoding="UTF-8"?>
<!DOCTYPE svg PUBLIC "-//W3C//DTD SVG 1.1//EN" "http://www.w3.org/Graphics/SVG/1.1/DTD/svg11.dtd">
<!-- File created by Marietta Hamberger, 2025. Licensed under CC BY 4.0 -->
<svg xmlns="http://www.w3.org/2000/svg" xmlns:xlink="http://www.w3.org/1999/xlink" version="1.1" width="329px" height="219px" viewBox="-0.5 -0.5 329 219"><defs/><g><g data-cell-id="0"><g data-cell-id="1"><g data-cell-id="NtpC2SXNlPaNqDQ2_mJr-1"><g><rect x="0" y="-0.2" width="328" height="219" rx="32.85" ry="32.85" fill="#0f8088" stroke="none" pointer-events="all"/></g></g><g data-cell-id="NtpC2SXNlPaNqDQ2_mJr-2"><g><rect x="84.69" y="135.3" width="80" height="23" rx="11.5" ry="11.5" fill="#ffffff" stroke="none" transform="rotate(-135,124.69,146.8)" pointer-events="all"/></g></g><g data-cell-id="NtpC2SXNlPaNqDQ2_mJr-3"><g><path d="M 30 34.3 L 111.69 34.3 L 141.69 64.3 L 141.69 184.3 L 30 184.3 L 30 34.3 Z" fill="#ffffff" stroke="none" pointer-events="all"/><path d="M 111.69 34.3 L 111.69 64.3 L 141.69 64.3 Z" fill-opacity="0.4" fill="#000000" stroke="none" pointer-events="all"/><path d="M 111.69 34.3 L 111.69 64.3 L 141.69 64.3" fill="none" stroke="none" pointer-events="all"/></g></g><g data-cell-id="NtpC2SXNlPaNqDQ2_mJr-4"><g/><g data-cell-id="NtpC2SXNlPaNqDQ2_mJr-5"><g><rect x="186" y="55.8" width="120" height="120" fill="none" stroke="none" transform="rotate(90,246,115.8)" pointer-events="all"/></g></g><g data-cell-id="NtpC2SXNlPaNqDQ2_mJr-6"><g><rect x="184" y="105.8" width="80" height="20" rx="10" ry="10" fill="#ffffff" stroke="none" transform="rotate(45,224,115.8)" pointer-events="all"/></g></g><g data-cell-id="NtpC2SXNlPaNqDQ2_mJr-7"><g><rect x="227" y="105.8" width="80" height="20" rx="10" ry="10" fill="#ffffff" stroke="none" transform="rotate(-45,267,115.8)" pointer-events="all"/></g></g></g><g data-cell-id="NtpC2SXNlPaNqDQ2_mJr-8"><g><path d="M 44.69 104.1 C 44.69 82.12 62.51 64.3 84.49 64.3 C 95.05 64.3 105.17 68.49 112.63 75.96 C 120.1 83.42 124.29 93.54 124.29 104.1 C 124.29 114.66 120.1 124.78 112.63 132.24 C 105.17 139.71 95.05 143.9 84.49 143.9 C 73.93 143.9 63.81 139.71 56.35 132.24 C 48.88 124.78 44.69 114.66 44.69 104.1 Z M 84.49 81.54 C 72.03 81.54 61.93 91.64 61.93 104.1 C 61.93 116.56 72.03 126.66 84.49 126.66 C 90.47 126.66 96.21 124.28 100.44 120.05 C 104.67 115.82 107.05 110.08 107.05 104.1 C 107.05 91.64 96.95 81.54 84.49 81.54 Z" fill="#00828a" stroke="none" pointer-events="all"/></g></g><g data-cell-id="NtpC2SXNlPaNqDQ2_mJr-9"><g><rect x="98.12" y="133.28" width="51.1" height="24" fill="#00828a" stroke="none" transform="rotate(-135,123.67,145.28)" pointer-events="all"/></g></g></g></g></g></svg>
