<?xml version="1.0" encoding="UTF-8"?>
<!DOCTYPE svg PUBLIC "-//W3C//DTD SVG 1.1//EN" "http://www.w3.org/Graphics/SVG/1.1/DTD/svg11.dtd">
<!-- File created by Marietta Hamberger, 2025. Licensed under CC BY 4.0 -->
<svg xmlns="http://www.w3.org/2000/svg" xmlns:xlink="http://www.w3.org/1999/xlink" version="1.1" width="134px" height="135px" viewBox="-0.5 -0.5 134 135"><defs><linearGradient x1="0%" y1="0%" x2="0%" y2="100%" id="mx-gradient-ffffff-0.9-ffffff-0.1-s-0"><stop offset="0%" style="stop-color: rgb(255, 255, 255); stop-opacity: 0.9;"/><stop offset="100%" style="stop-color: rgb(255, 255, 255); stop-opacity: 0.1;"/></linearGradient></defs><g><g data-cell-id="0"><g data-cell-id="1"><g data-cell-id="XNZbWRk4VYoFNLiMzJPY-1"><g><rect x="0" y="0" width="134" height="134" fill="none" stroke="none" pointer-events="all"/></g></g><g data-cell-id="XNZbWRk4VYoFNLiMzJPY-2"><g><path d="M 35.58 32 L 19 32 Q 16 32 17.49 29.39 L 21.36 22.61 Q 22.84 20 25.84 20 L 59 20 Q 62 20 60.51 22.61 L 56.64 29.39 Q 55.16 32 52.16 32 Z" fill="#0f8088" stroke="#0e8088" stroke-miterlimit="10" transform="translate(39,0)scale(-1,1)translate(-39,0)" pointer-events="all"/></g></g><g data-cell-id="XNZbWRk4VYoFNLiMzJPY-3"><g><rect x="2" y="26" width="117" height="21" rx="1.26" ry="1.26" fill="#0f8088" stroke="#0e8088" pointer-events="all"/></g></g><g data-cell-id="XNZbWRk4VYoFNLiMzJPY-4"><g><rect x="2" y="20" width="48" height="18" rx="1.08" ry="1.08" fill="#0f8088" stroke="#0e8088" pointer-events="all"/></g></g><g data-cell-id="XNZbWRk4VYoFNLiMzJPY-5"><g><rect x="2.5" y="20.5" width="50.5" height="12" rx="0.72" ry="0.72" fill="#0f8088" stroke="none" pointer-events="all"/></g></g><g data-cell-id="XNZbWRk4VYoFNLiMzJPY-6"><g><rect x="52.1" y="23.17" width="6" height="7.5" rx="0.36" ry="0.36" fill="#0f8088" stroke="none" transform="rotate(-30,55.1,26.92)" pointer-events="all"/></g></g><g data-cell-id="XNZbWRk4VYoFNLiMzJPY-7"><g><rect x="7" y="29" width="109" height="60" rx="2.4" ry="2.4" fill="#e6e6e6" stroke="none" pointer-events="all"/><path d="M 10.44 28 Q 6 28 6 32.44 L 6 53 Q 61.5 71 117 53 L 117 32.44 Q 117 28 112.56 28 Z" fill="url(#mx-gradient-ffffff-0.9-ffffff-0.1-s-0)" stroke="none" pointer-events="all"/></g></g><g data-cell-id="XNZbWRk4VYoFNLiMzJPY-8"><g><rect x="2" y="35" width="120" height="83" rx="4.98" ry="4.98" fill="#0f8088" stroke="#0e8088" pointer-events="all"/></g></g></g></g></g></svg>
