<?xml version="1.0" encoding="UTF-8"?>
<!DOCTYPE svg PUBLIC "-//W3C//DTD SVG 1.1//EN" "http://www.w3.org/Graphics/SVG/1.1/DTD/svg11.dtd">
<!-- File created by Marietta Hamberger, 2025. Licensed under CC BY 4.0 -->
<svg xmlns="http://www.w3.org/2000/svg" xmlns:xlink="http://www.w3.org/1999/xlink" version="1.1" width="134px" height="134px" viewBox="-0.5 -0.5 134 134"><defs><linearGradient x1="0%" y1="0%" x2="0%" y2="100%" id="mx-gradient-ffffff-0.9-ffffff-0.1-s-0"><stop offset="0%" style="stop-color: rgb(255, 255, 255); stop-opacity: 0.9;"/><stop offset="100%" style="stop-color: rgb(255, 255, 255); stop-opacity: 0.1;"/></linearGradient></defs><g><g data-cell-id="0"><g data-cell-id="1"><g data-cell-id="UHIGQWmeA4scT1B86GWO-1"><g><rect x="0" y="0" width="134" height="134" fill="none" stroke="none" pointer-events="all"/></g></g><g data-cell-id="UHIGQWmeA4scT1B86GWO-2"><g><rect x="2" y="35" width="120" height="83" rx="4.98" ry="4.98" fill="#0f739e" stroke="#10739e" pointer-events="all"/></g></g><g data-cell-id="UHIGQWmeA4scT1B86GWO-3"><g><path d="M 35.58 32 L 19 32 Q 16 32 17.49 29.39 L 21.36 22.61 Q 22.84 20 25.84 20 L 59 20 Q 62 20 60.51 22.61 L 56.64 29.39 Q 55.16 32 52.16 32 Z" fill="#0f739e" stroke="#10739e" stroke-miterlimit="10" transform="translate(39,0)scale(-1,1)translate(-39,0)" pointer-events="all"/></g></g><g data-cell-id="UHIGQWmeA4scT1B86GWO-4"><g><rect x="2" y="26" width="117" height="21" rx="1.26" ry="1.26" fill="#0f739e" stroke="#10739e" pointer-events="all"/></g></g><g data-cell-id="UHIGQWmeA4scT1B86GWO-5"><g><rect x="2" y="20" width="48" height="18" rx="1.08" ry="1.08" fill="#0f739e" stroke="#10739e" pointer-events="all"/></g></g><g data-cell-id="UHIGQWmeA4scT1B86GWO-6"><g><rect x="2.5" y="20.5" width="50.5" height="12" rx="0.72" ry="0.72" fill="#0f739e" stroke="none" pointer-events="all"/></g></g><g data-cell-id="UHIGQWmeA4scT1B86GWO-7"><g><rect x="52.1" y="23.17" width="6" height="7.5" rx="0.36" ry="0.36" fill="#0f739e" stroke="none" transform="rotate(-30,55.1,26.92)" pointer-events="all"/></g></g><g data-cell-id="UHIGQWmeA4scT1B86GWO-8"><g><rect x="2.5" y="36" width="6" height="12.5" rx="0.36" ry="0.36" fill="#0f739e" stroke="none" pointer-events="all"/></g></g><g data-cell-id="UHIGQWmeA4scT1B86GWO-9"><g><rect x="7" y="29" width="109" height="74" rx="2.96" ry="2.96" fill="#e6e6e6" stroke="none" pointer-events="all"/><path d="M 11 28 Q 6 28 6 33 L 6 58.6 Q 61.5 80.8 117 58.6 L 117 33 Q 117 28 112 28 Z" fill="url(#mx-gradient-ffffff-0.9-ffffff-0.1-s-0)" stroke="none" pointer-events="all"/></g></g><g data-cell-id="UHIGQWmeA4scT1B86GWO-10"><g><path d="M 62 118 L 8 118 Q 2 118 2.79 112.05 L 12.21 40.95 Q 13 35 19 35 L 127 35 Q 133 35 132.21 40.95 L 122.79 112.05 Q 122 118 116 118 Z" fill="#0f739e" stroke="#10739e" stroke-miterlimit="10" pointer-events="all"/></g></g></g></g></g></svg>
