<?xml version="1.0" encoding="UTF-8"?>
<!DOCTYPE svg PUBLIC "-//W3C//DTD SVG 1.1//EN" "http://www.w3.org/Graphics/SVG/1.1/DTD/svg11.dtd">
<!-- File created by Marietta Hamberger, 2025. Licensed under CC BY 4.0 -->
<svg xmlns="http://www.w3.org/2000/svg" xmlns:xlink="http://www.w3.org/1999/xlink" version="1.1" width="200px" height="200px" viewBox="-0.5 -0.5 200 200"><defs/><g><g data-cell-id="UTPnl9FupDdtpHg_VGXS-0"><g data-cell-id="UTPnl9FupDdtpHg_VGXS-1"><g data-cell-id="UTPnl9FupDdtpHg_VGXS-2"><g><rect x="0" y="0" width="200" height="200" rx="30" ry="30" fill="none" stroke="none" pointer-events="all"/></g></g><g data-cell-id="UTPnl9FupDdtpHg_VGXS-3"><g><rect x="85" y="150.5" width="70" height="30" rx="15" ry="15" fill="#ffffff" stroke="none" transform="rotate(30,120,165.5)" pointer-events="all"/></g></g><g data-cell-id="UTPnl9FupDdtpHg_VGXS-4"><g><rect x="102.65" y="126" width="110" height="30" rx="15" ry="15" fill="#ffffff" stroke="none" transform="rotate(-60,157.65,141)" pointer-events="all"/></g></g><g data-cell-id="xYEaOUboRduh9Jz_P3D--0"><g/><g data-cell-id="xYEaOUboRduh9Jz_P3D--1"><g/></g><g data-cell-id="xYEaOUboRduh9Jz_P3D--2"><g><path d="M 78.9 137 Q 78.9 122.21 51.45 108.53 Q 24 94.85 24 81.53" fill="none" stroke="#ffffff" stroke-width="11" stroke-linecap="round" stroke-miterlimit="10" pointer-events="stroke"/></g></g><g data-cell-id="xYEaOUboRduh9Jz_P3D--3"><g><path d="M 79.71 77.47 Q 79.71 62.68 52.26 48.99 Q 24.81 35.31 24.81 22" fill="none" stroke="#ffffff" stroke-width="11" stroke-linecap="round" stroke-miterlimit="10" pointer-events="stroke"/></g></g><g data-cell-id="xYEaOUboRduh9Jz_P3D--4"><g><path d="M 24 81.9 Q 24 67.11 51.45 53.43 Q 78.9 39.75 78.9 26.44" fill="none" stroke="#ffffff" stroke-width="11" stroke-linecap="round" stroke-miterlimit="10" pointer-events="stroke"/></g></g><g data-cell-id="xYEaOUboRduh9Jz_P3D--5"><g><path d="M 24.81 132.19 Q 24.81 117.4 52.26 103.72 Q 79.71 90.04 79.71 76.73" fill="none" stroke="#ffffff" stroke-width="11" stroke-linecap="round" stroke-miterlimit="10" pointer-events="stroke"/></g></g><g data-cell-id="xYEaOUboRduh9Jz_P3D--6"><g><rect x="28.84" y="28.66" width="29.87" height="7.4" rx="3.7" ry="3.7" fill="#ffffff" stroke="#ffffff" pointer-events="all"/></g></g><g data-cell-id="xYEaOUboRduh9Jz_P3D--7"><g><rect x="48.22" y="63.41" width="29.87" height="7.4" rx="3.7" ry="3.7" fill="#ffffff" stroke="#ffffff" pointer-events="all"/></g></g><g data-cell-id="xYEaOUboRduh9Jz_P3D--8"><g><rect x="65.18" y="76.73" width="13.73" height="7.4" rx="3.7" ry="3.7" fill="#ffffff" stroke="#ffffff" pointer-events="all"/></g></g><g data-cell-id="xYEaOUboRduh9Jz_P3D--9"><g><rect x="24.81" y="76.73" width="35.53" height="7.4" rx="3.7" ry="3.7" fill="#ffffff" stroke="#ffffff" pointer-events="all"/></g></g><g data-cell-id="xYEaOUboRduh9Jz_P3D--10"><g><rect x="27.63" y="90.04" width="21.4" height="7.4" rx="3.7" ry="3.7" fill="#ffffff" stroke="#ffffff" pointer-events="all"/></g></g><g data-cell-id="xYEaOUboRduh9Jz_P3D--11"><g><rect x="44.01" y="120.36" width="29.87" height="7.4" rx="3.7" ry="3.7" fill="#ffffff" stroke="#ffffff" pointer-events="all"/></g></g></g><g data-cell-id="xYEaOUboRduh9Jz_P3D--12"><g/><g data-cell-id="xYEaOUboRduh9Jz_P3D--13"><g/></g><g data-cell-id="xYEaOUboRduh9Jz_P3D--14"><g><path d="M 144.35 110 Q 144.35 97.78 121.68 86.48 Q 99 75.18 99 64.18" fill="none" stroke="#eff9fa" stroke-width="8" stroke-linecap="round" stroke-miterlimit="10" pointer-events="stroke"/></g></g><g data-cell-id="xYEaOUboRduh9Jz_P3D--15"><g><path d="M 145.02 60.82 Q 145.02 48.6 122.34 37.3 Q 99.67 26 99.67 15" fill="none" stroke="#eff9fa" stroke-width="8" stroke-linecap="round" stroke-miterlimit="10" pointer-events="stroke"/></g></g><g data-cell-id="xYEaOUboRduh9Jz_P3D--16"><g><path d="M 99 64.49 Q 99 52.27 121.68 40.96 Q 144.35 29.66 144.35 18.67" fill="none" stroke="#eff9fa" stroke-width="8" stroke-linecap="round" stroke-miterlimit="10" pointer-events="stroke"/></g></g><g data-cell-id="xYEaOUboRduh9Jz_P3D--17"><g><path d="M 99.67 106.03 Q 99.67 93.81 122.34 82.51 Q 145.02 71.21 145.02 60.21" fill="none" stroke="#eff9fa" stroke-width="8" stroke-linecap="round" stroke-miterlimit="10" pointer-events="stroke"/></g></g><g data-cell-id="xYEaOUboRduh9Jz_P3D--18"><g><rect x="103" y="20.5" width="24.68" height="5" rx="2.5" ry="2.5" fill="#eff9fa" stroke="#eff9fa" pointer-events="all"/></g></g><g data-cell-id="xYEaOUboRduh9Jz_P3D--19"><g><rect x="119.01" y="49.21" width="24.68" height="5" rx="2.5" ry="2.5" fill="#eff9fa" stroke="#eff9fa" pointer-events="all"/></g></g><g data-cell-id="xYEaOUboRduh9Jz_P3D--20"><g><rect x="133.01" y="60.21" width="11.34" height="5" rx="2.5" ry="2.5" fill="#eff9fa" stroke="#eff9fa" pointer-events="all"/></g></g><g data-cell-id="xYEaOUboRduh9Jz_P3D--21"><g><rect x="99.67" y="60.21" width="29.35" height="5" rx="2.5" ry="2.5" fill="#eff9fa" stroke="#eff9fa" pointer-events="all"/></g></g><g data-cell-id="xYEaOUboRduh9Jz_P3D--22"><g><rect x="102" y="71.21" width="17.67" height="5" rx="2.5" ry="2.5" fill="#eff9fa" stroke="#eff9fa" pointer-events="all"/></g></g><g data-cell-id="xYEaOUboRduh9Jz_P3D--23"><g><rect x="115.53" y="96.25" width="24.68" height="5" rx="2.5" ry="2.5" fill="#eff9fa" stroke="#eff9fa" pointer-events="all"/></g></g></g></g></g></g></svg>
