<?xml version="1.0" encoding="UTF-8"?>
<!DOCTYPE svg PUBLIC "-//W3C//DTD SVG 1.1//EN" "http://www.w3.org/Graphics/SVG/1.1/DTD/svg11.dtd">
<!-- File created by Marietta Hamberger, 2025. Licensed under CC BY 4.0 -->
<svg xmlns="http://www.w3.org/2000/svg" xmlns:xlink="http://www.w3.org/1999/xlink" version="1.1" width="375px" height="219px" viewBox="-0.5 -0.5 375 219"><defs/><g><g data-cell-id="0"><g data-cell-id="1"><g data-cell-id="w-FzLjls-7og1YaaYt_W-1"><g><rect x="0" y="-0.11" width="375" height="219" rx="32.85" ry="32.85" fill="#0f8088" stroke="none" pointer-events="all"/></g></g><g data-cell-id="w-FzLjls-7og1YaaYt_W-2"><g/><g data-cell-id="w-FzLjls-7og1YaaYt_W-3"><g><rect x="233" y="55.89" width="120" height="120" fill="none" stroke="none" transform="rotate(90,293,115.89)" pointer-events="all"/></g></g><g data-cell-id="w-FzLjls-7og1YaaYt_W-4"><g><rect x="231" y="105.89" width="80" height="20" rx="10" ry="10" fill="#ffffff" stroke="none" transform="rotate(45,271,115.89)" pointer-events="all"/></g></g><g data-cell-id="w-FzLjls-7og1YaaYt_W-5"><g><rect x="274" y="105.89" width="80" height="20" rx="10" ry="10" fill="#ffffff" stroke="none" transform="rotate(-45,314,115.89)" pointer-events="all"/></g></g></g><g data-cell-id="w-FzLjls-7og1YaaYt_W-6"><g><rect x="30" y="53.41" width="91.25" height="121.73" fill="#698588" stroke="#698588" stroke-width="3" pointer-events="all"/></g></g><g data-cell-id="w-FzLjls-7og1YaaYt_W-7"><g><rect x="121.25" y="53.41" width="91.25" height="121.73" fill="#698588" stroke="#698588" stroke-width="3" pointer-events="all"/></g></g><g data-cell-id="w-FzLjls-7og1YaaYt_W-8"><g style="filter: drop-shadow(rgba(0, 0, 0, 0.25) 2px 3px 2px);"><path d="M 25.23 62.98 L 135.76 62.98 Q 120.82 106.98 135.76 150.98 L 25.23 150.98 Q 10.29 106.98 25.23 62.98 Z" fill="rgb(255, 255, 255)" stroke="none" transform="rotate(90,76.76,106.98)" pointer-events="all"/></g></g><g data-cell-id="w-FzLjls-7og1YaaYt_W-9"><g style="filter: drop-shadow(rgba(0, 0, 0, 0.25) 2px 3px 2px);"><path d="M 113.49 62.98 L 224.02 62.98 Q 209.08 106.98 224.02 150.98 L 113.49 150.98 Q 98.55 106.98 113.49 62.98 Z" fill="rgb(255, 255, 255)" stroke="none" transform="rotate(90,165.02,106.98)" pointer-events="all"/></g></g><g data-cell-id="w-FzLjls-7og1YaaYt_W-10"><g><path d="M 73.8 91.86 L 89.4 94.42" fill="none" stroke="#0f8088" stroke-width="5" stroke-miterlimit="10" pointer-events="stroke"/></g></g><g data-cell-id="w-FzLjls-7og1YaaYt_W-11"><g><ellipse cx="59" cy="89.39" rx="15" ry="15" fill="#0f8088" stroke="#0f8088" pointer-events="all"/></g></g><g data-cell-id="w-FzLjls-7og1YaaYt_W-12"><g><ellipse cx="101.24" cy="96.39" rx="12" ry="12" fill="#0f8088" stroke="#0f8088" pointer-events="all"/></g></g><g data-cell-id="w-FzLjls-7og1YaaYt_W-13"><g><path d="M 80.07 126.25 L 94.46 106.29" fill="none" stroke="#0f8088" stroke-width="5" stroke-miterlimit="10" pointer-events="stroke"/></g></g><g data-cell-id="w-FzLjls-7og1YaaYt_W-14"><g><ellipse cx="74.26" cy="134.39" rx="10" ry="10" fill="#0f8088" stroke="#0f8088" pointer-events="all"/></g></g><g data-cell-id="w-FzLjls-7og1YaaYt_W-15"><g/><g data-cell-id="w-FzLjls-7og1YaaYt_W-16"><g/></g><g data-cell-id="w-FzLjls-7og1YaaYt_W-17"><g><path d="M 181.39 147.59 Q 181.39 136.44 160.7 126.12 Q 140 115.81 140 105.77" fill="none" stroke="#0f8088" stroke-width="11" stroke-linecap="round" stroke-miterlimit="10" pointer-events="stroke"/></g></g><g data-cell-id="w-FzLjls-7og1YaaYt_W-18"><g><path d="M 182 102.71 Q 182 91.56 161.3 81.24 Q 140.61 70.93 140.61 60.89" fill="none" stroke="#0f8088" stroke-width="11" stroke-linecap="round" stroke-miterlimit="10" pointer-events="stroke"/></g></g><g data-cell-id="w-FzLjls-7og1YaaYt_W-19"><g><path d="M 140 106.05 Q 140 94.9 160.7 84.59 Q 181.39 74.27 181.39 64.24" fill="none" stroke="#0f8088" stroke-width="11" stroke-linecap="round" stroke-miterlimit="10" pointer-events="stroke"/></g></g><g data-cell-id="w-FzLjls-7og1YaaYt_W-20"><g><path d="M 140.61 143.97 Q 140.61 132.81 161.3 122.5 Q 182 112.19 182 102.15" fill="none" stroke="#0f8088" stroke-width="11" stroke-linecap="round" stroke-miterlimit="10" pointer-events="stroke"/></g></g><g data-cell-id="w-FzLjls-7og1YaaYt_W-21"><g><rect x="143.65" y="65.91" width="22.52" height="5.58" rx="2.79" ry="2.79" fill="#0f8088" stroke="#0f8088" pointer-events="all"/></g></g><g data-cell-id="w-FzLjls-7og1YaaYt_W-22"><g><rect x="158.26" y="92.11" width="22.52" height="5.58" rx="2.79" ry="2.79" fill="#0f8088" stroke="#0f8088" pointer-events="all"/></g></g><g data-cell-id="w-FzLjls-7og1YaaYt_W-23"><g><rect x="171.04" y="102.15" width="10.35" height="5.58" rx="2.79" ry="2.79" fill="#0f8088" stroke="#0f8088" pointer-events="all"/></g></g><g data-cell-id="w-FzLjls-7og1YaaYt_W-24"><g><rect x="140.61" y="102.15" width="26.78" height="5.58" rx="2.79" ry="2.79" fill="#0f8088" stroke="#0f8088" pointer-events="all"/></g></g><g data-cell-id="w-FzLjls-7og1YaaYt_W-25"><g><rect x="142.74" y="112.19" width="16.13" height="5.58" rx="2.79" ry="2.79" fill="#0f8088" stroke="#0f8088" pointer-events="all"/></g></g><g data-cell-id="w-FzLjls-7og1YaaYt_W-26"><g><rect x="155.08" y="135.04" width="22.52" height="5.58" rx="2.79" ry="2.79" fill="#0f8088" stroke="#0f8088" pointer-events="all"/></g></g></g></g></g></g></svg>
