<?xml version="1.0" encoding="UTF-8"?>
<!DOCTYPE svg PUBLIC "-//W3C//DTD SVG 1.1//EN" "http://www.w3.org/Graphics/SVG/1.1/DTD/svg11.dtd">
<!-- File created by Marietta Hamberger, 2025. Licensed under CC BY 4.0 -->
<svg xmlns="http://www.w3.org/2000/svg" xmlns:xlink="http://www.w3.org/1999/xlink" version="1.1" width="375px" height="219px" viewBox="-0.5 -0.5 375 219"><defs/><g><g data-cell-id="0"><g data-cell-id="1"><g data-cell-id="VufsyuKavVBYqU_dgVb9-1"><g><rect x="0" y="0" width="375" height="219" rx="32.85" ry="32.85" fill="#0f8088" stroke="none" pointer-events="all"/></g></g><g data-cell-id="VufsyuKavVBYqU_dgVb9-2"><g/><g data-cell-id="VufsyuKavVBYqU_dgVb9-3"><g><rect x="233" y="56" width="120" height="120" fill="none" stroke="none" transform="rotate(-90,293,116)" pointer-events="all"/></g></g><g data-cell-id="VufsyuKavVBYqU_dgVb9-4"><g><rect x="275" y="106" width="80" height="20" rx="10" ry="10" fill="#ffffff" stroke="none" transform="rotate(-135,315,116)" pointer-events="all"/></g></g><g data-cell-id="VufsyuKavVBYqU_dgVb9-5"><g><rect x="232" y="106" width="80" height="20" rx="10" ry="10" fill="#ffffff" stroke="none" transform="rotate(-225,272,116)" pointer-events="all"/></g></g></g><g data-cell-id="VufsyuKavVBYqU_dgVb9-6"><g><rect x="30" y="53.53" width="91.25" height="121.73" fill="#698588" stroke="#698588" stroke-width="3" pointer-events="all"/></g></g><g data-cell-id="VufsyuKavVBYqU_dgVb9-7"><g><rect x="121.25" y="53.53" width="91.25" height="121.73" fill="#698588" stroke="#698588" stroke-width="3" pointer-events="all"/></g></g><g data-cell-id="VufsyuKavVBYqU_dgVb9-8"><g style="filter: drop-shadow(rgba(0, 0, 0, 0.25) 2px 3px 2px);"><path d="M 25.23 63.09 L 135.76 63.09 Q 120.82 107.09 135.76 151.09 L 25.23 151.09 Q 10.29 107.09 25.23 63.09 Z" fill="rgb(255, 255, 255)" stroke="none" transform="rotate(90,76.76,107.09)" pointer-events="all"/></g></g><g data-cell-id="VufsyuKavVBYqU_dgVb9-9"><g style="filter: drop-shadow(rgba(0, 0, 0, 0.25) 2px 3px 2px);"><path d="M 113.49 63.09 L 224.02 63.09 Q 209.08 107.09 224.02 151.09 L 113.49 151.09 Q 98.55 107.09 113.49 63.09 Z" fill="rgb(255, 255, 255)" stroke="none" transform="rotate(90,165.02,107.09)" pointer-events="all"/></g></g><g data-cell-id="VufsyuKavVBYqU_dgVb9-10"><g><path d="M 73.8 91.97 L 89.4 94.53" fill="none" stroke="#0f8088" stroke-width="5" stroke-miterlimit="10" pointer-events="stroke"/></g></g><g data-cell-id="VufsyuKavVBYqU_dgVb9-11"><g><ellipse cx="59" cy="89.5" rx="15" ry="15" fill="#0f8088" stroke="#0f8088" pointer-events="all"/></g></g><g data-cell-id="VufsyuKavVBYqU_dgVb9-12"><g><ellipse cx="101.24" cy="96.5" rx="12" ry="12" fill="#0f8088" stroke="#0f8088" pointer-events="all"/></g></g><g data-cell-id="VufsyuKavVBYqU_dgVb9-13"><g><path d="M 80.07 126.36 L 94.46 106.4" fill="none" stroke="#0f8088" stroke-width="5" stroke-miterlimit="10" pointer-events="stroke"/></g></g><g data-cell-id="VufsyuKavVBYqU_dgVb9-14"><g><ellipse cx="74.26" cy="134.5" rx="10" ry="10" fill="#0f8088" stroke="#0f8088" pointer-events="all"/></g></g><g data-cell-id="VufsyuKavVBYqU_dgVb9-15"><g/><g data-cell-id="VufsyuKavVBYqU_dgVb9-16"><g/></g><g data-cell-id="VufsyuKavVBYqU_dgVb9-17"><g><path d="M 181.39 147.7 Q 181.39 136.55 160.7 126.23 Q 140 115.92 140 105.88" fill="none" stroke="#0f8088" stroke-width="11" stroke-linecap="round" stroke-miterlimit="10" pointer-events="stroke"/></g></g><g data-cell-id="VufsyuKavVBYqU_dgVb9-18"><g><path d="M 182 102.82 Q 182 91.67 161.3 81.35 Q 140.61 71.04 140.61 61" fill="none" stroke="#0f8088" stroke-width="11" stroke-linecap="round" stroke-miterlimit="10" pointer-events="stroke"/></g></g><g data-cell-id="VufsyuKavVBYqU_dgVb9-19"><g><path d="M 140 106.16 Q 140 95.01 160.7 84.7 Q 181.39 74.38 181.39 64.35" fill="none" stroke="#0f8088" stroke-width="11" stroke-linecap="round" stroke-miterlimit="10" pointer-events="stroke"/></g></g><g data-cell-id="VufsyuKavVBYqU_dgVb9-20"><g><path d="M 140.61 144.08 Q 140.61 132.92 161.3 122.61 Q 182 112.3 182 102.26" fill="none" stroke="#0f8088" stroke-width="11" stroke-linecap="round" stroke-miterlimit="10" pointer-events="stroke"/></g></g><g data-cell-id="VufsyuKavVBYqU_dgVb9-21"><g><rect x="143.65" y="66.02" width="22.52" height="5.58" rx="2.79" ry="2.79" fill="#0f8088" stroke="#0f8088" pointer-events="all"/></g></g><g data-cell-id="VufsyuKavVBYqU_dgVb9-22"><g><rect x="158.26" y="92.22" width="22.52" height="5.58" rx="2.79" ry="2.79" fill="#0f8088" stroke="#0f8088" pointer-events="all"/></g></g><g data-cell-id="VufsyuKavVBYqU_dgVb9-23"><g><rect x="171.04" y="102.26" width="10.35" height="5.58" rx="2.79" ry="2.79" fill="#0f8088" stroke="#0f8088" pointer-events="all"/></g></g><g data-cell-id="VufsyuKavVBYqU_dgVb9-24"><g><rect x="140.61" y="102.26" width="26.78" height="5.58" rx="2.79" ry="2.79" fill="#0f8088" stroke="#0f8088" pointer-events="all"/></g></g><g data-cell-id="VufsyuKavVBYqU_dgVb9-25"><g><rect x="142.74" y="112.3" width="16.13" height="5.58" rx="2.79" ry="2.79" fill="#0f8088" stroke="#0f8088" pointer-events="all"/></g></g><g data-cell-id="VufsyuKavVBYqU_dgVb9-26"><g><rect x="155.08" y="135.15" width="22.52" height="5.58" rx="2.79" ry="2.79" fill="#0f8088" stroke="#0f8088" pointer-events="all"/></g></g></g></g></g></g></svg>
