<?xml version="1.0" encoding="UTF-8"?>
<!DOCTYPE svg PUBLIC "-//W3C//DTD SVG 1.1//EN" "http://www.w3.org/Graphics/SVG/1.1/DTD/svg11.dtd">
<!-- File created by Marietta Hamberger, 2025. Licensed under CC BY 4.0 -->
<svg xmlns="http://www.w3.org/2000/svg" xmlns:xlink="http://www.w3.org/1999/xlink" version="1.1" width="66px" height="66px" viewBox="-0.5 -0.5 66 66"><defs><radialGradient x1="0%" y1="0%" x2="0%" y2="0%" id="mx-gradient-ffffff-1-4d4d4d-1-r-0"><stop offset="0%" style="stop-color: rgb(255, 255, 255); stop-opacity: 1;"/><stop offset="100%" style="stop-color: rgb(77, 77, 77); stop-opacity: 1;"/></radialGradient><radialGradient x1="0%" y1="0%" x2="0%" y2="0%" id="mx-gradient-ffffff-1-b3b3b3-1-r-0"><stop offset="0%" style="stop-color: rgb(255, 255, 255); stop-opacity: 1;"/><stop offset="100%" style="stop-color: rgb(179, 179, 179); stop-opacity: 1;"/></radialGradient><radialGradient x1="0%" y1="0%" x2="0%" y2="0%" id="mx-gradient-fefffc-1-fad775-1-r-0"><stop offset="0%" style="stop-color: rgb(254, 255, 252); stop-opacity: 1;"/><stop offset="100%" style="stop-color: rgb(250, 215, 117); stop-opacity: 1;"/></radialGradient><radialGradient x1="0%" y1="0%" x2="0%" y2="0%" id="mx-gradient-edead5-1-fada81-1-r-0"><stop offset="0%" style="stop-color: rgb(237, 234, 213); stop-opacity: 1;"/><stop offset="100%" style="stop-color: rgb(250, 218, 129); stop-opacity: 1;"/></radialGradient><radialGradient x1="0%" y1="0%" x2="0%" y2="0%" id="mx-gradient-ede4ab-1-fada81-1-r-0"><stop offset="0%" style="stop-color: rgb(237, 228, 171); stop-opacity: 1;"/><stop offset="100%" style="stop-color: rgb(250, 218, 129); stop-opacity: 1;"/></radialGradient><radialGradient x1="0%" y1="0%" x2="0%" y2="0%" id="mx-gradient-ffffff-1-fade90-1-r-0"><stop offset="0%" style="stop-color: rgb(255, 255, 255); stop-opacity: 1;"/><stop offset="100%" style="stop-color: rgb(250, 222, 144); stop-opacity: 1;"/></radialGradient></defs><g><g data-cell-id="0"><g data-cell-id="1"><g data-cell-id="RhQ6gDE0ODdwnQoV3R-R-14"><g><rect x="0" y="0" width="66" height="66" fill="none" stroke="none" pointer-events="all"/></g></g><g data-cell-id="RhQ6gDE0ODdwnQoV3R-R-1"><g><path d="M 32.5 59 Q 35.5 59 35.5 64 Q 35.5 69 32.5 69 Z" fill="url(#mx-gradient-ffffff-1-4d4d4d-1-r-0)" stroke="none" transform="rotate(90,34,64)" pointer-events="all"/></g></g><g data-cell-id="RhQ6gDE0ODdwnQoV3R-R-2"><g><rect x="27" y="60" width="14" height="3" rx="1.5" ry="1.5" fill="url(#mx-gradient-ffffff-1-b3b3b3-1-r-0)" stroke="none" pointer-events="all"/></g></g><g data-cell-id="RhQ6gDE0ODdwnQoV3R-R-3"><g><rect x="26" y="57" width="16" height="4" rx="2" ry="2" fill="url(#mx-gradient-ffffff-1-b3b3b3-1-r-0)" stroke="none" pointer-events="all"/></g></g><g data-cell-id="RhQ6gDE0ODdwnQoV3R-R-4"><g><path d="M 22 36 Q 30 36 30 47 Q 30 58 22 58 Q 26 47 22 36 Z" fill="#fada81" stroke="none" transform="rotate(341,26,47)" pointer-events="all"/></g></g><g data-cell-id="RhQ6gDE0ODdwnQoV3R-R-5"><g><path d="M 38.66 35 Q 46.66 35 46.66 46 Q 46.66 57 38.66 57 Q 42.66 46 38.66 35 Z" fill="#fada81" stroke="none" transform="rotate(561,42.66,46)" pointer-events="all"/></g></g><g data-cell-id="RhQ6gDE0ODdwnQoV3R-R-6"><g><path d="M 26.55 54.81 Q 25 47 18.03 37.66" fill="none" stroke="none" pointer-events="stroke"/></g></g><g data-cell-id="RhQ6gDE0ODdwnQoV3R-R-7"><g><path d="M 42 56 Q 43 47 50.37 37.27" fill="none" stroke="none" pointer-events="stroke"/></g></g><g data-cell-id="RhQ6gDE0ODdwnQoV3R-R-8"><g><ellipse cx="34" cy="22.57" rx="22" ry="22" fill="url(#mx-gradient-fefffc-1-fad775-1-r-0)" stroke="none" pointer-events="all"/></g></g><g data-cell-id="RhQ6gDE0ODdwnQoV3R-R-9"><g><path d="M 28.73 56 L 28.73 48.1 C 28.73 43.95 26.78 40.05 23.46 37.56 C 16.85 32.96 14 24.6 16.41 16.91 C 18.82 9.23 25.94 4 34 4 C 42.05 4 49.17 9.23 51.58 16.91 C 54 24.6 51.14 32.96 44.53 37.56 C 41.22 40.05 39.26 43.95 39.26 48.1 L 39.26 56 Z" fill-opacity="0.6" fill="url(#mx-gradient-edead5-1-fada81-1-r-0)" stroke="none" pointer-events="all"/><path d="M 34 25.98 L 34 50.73 M 28.73 50.73 L 39.26 50.73" fill-opacity="0.6" fill="url(#mx-gradient-edead5-1-fada81-1-r-0)" stroke="none" pointer-events="all"/><ellipse cx="34" cy="24.4" rx="1.5799868334430545" ry="1.5802269043760133" fill="none" stroke="none" pointer-events="all"/></g></g><g data-cell-id="RhQ6gDE0ODdwnQoV3R-R-10"><g><rect x="27" y="42" width="14" height="17" fill="url(#mx-gradient-ede4ab-1-fada81-1-r-0)" stroke="none" pointer-events="all"/></g></g><g data-cell-id="RhQ6gDE0ODdwnQoV3R-R-11"><g><rect x="25" y="55" width="18" height="4" rx="2" ry="2" fill="url(#mx-gradient-ffffff-1-b3b3b3-1-r-0)" stroke="none" pointer-events="all"/></g></g><g data-cell-id="RhQ6gDE0ODdwnQoV3R-R-12"><g><ellipse cx="34" cy="23.78" rx="15" ry="19.215" fill="url(#mx-gradient-ffffff-1-fade90-1-r-0)" stroke="none" pointer-events="all"/></g></g><g data-cell-id="RhQ6gDE0ODdwnQoV3R-R-13"><g><path d="M 25 51 C 25 51.68 29.03 52.23 34 52.23 C 38.97 52.23 43 51.68 43 51 L 43 55.77 C 43 56.45 38.97 57 34 57 C 29.03 57 25 56.45 25 55.77 Z" fill="url(#mx-gradient-ffffff-1-b3b3b3-1-r-0)" stroke="none" pointer-events="all"/></g></g></g></g></g></svg>
