<?xml version="1.0" encoding="UTF-8"?>
<!DOCTYPE svg PUBLIC "-//W3C//DTD SVG 1.1//EN" "http://www.w3.org/Graphics/SVG/1.1/DTD/svg11.dtd">
<!-- File created by Marietta Hamberger, 2025. Licensed under CC BY 4.0 -->
<svg xmlns="http://www.w3.org/2000/svg" xmlns:xlink="http://www.w3.org/1999/xlink" version="1.1" width="170px" height="170px" viewBox="-0.5 -0.5 170 170"><defs><linearGradient x1="0%" y1="0%" x2="0%" y2="100%" id="mx-gradient-ffffff-0.9-ffffff-0.1-s-0"><stop offset="0%" style="stop-color: rgb(255, 255, 255); stop-opacity: 0.9;"/><stop offset="100%" style="stop-color: rgb(255, 255, 255); stop-opacity: 0.1;"/></linearGradient><linearGradient x1="0%" y1="100%" x2="0%" y2="0%" id="mx-gradient-00828a-1-ffffff-1-s-0"><stop offset="0%" style="stop-color: rgb(255, 255, 255); stop-opacity: 1;"/><stop offset="100%" style="stop-color: rgb(0, 130, 138); stop-opacity: 1;"/></linearGradient></defs><g><g data-cell-id="0"><g data-cell-id="1"><g data-cell-id="Y9i8xWt3ksJYhu0SVQmK-11"><g><rect x="0" y="0" width="170" height="170" fill="none" stroke="none" pointer-events="all"/></g></g><g data-cell-id="Y9i8xWt3ksJYhu0SVQmK-1"><g><rect x="22" y="83" width="120" height="83" rx="4.98" ry="4.98" fill="#00828a" stroke="#00828a" pointer-events="all"/></g></g><g data-cell-id="Y9i8xWt3ksJYhu0SVQmK-2"><g><path d="M 55.58 80 L 39 80 Q 36 80 37.49 77.39 L 41.36 70.61 Q 42.84 68 45.84 68 L 79 68 Q 82 68 80.51 70.61 L 76.64 77.39 Q 75.16 80 72.16 80 Z" fill="#0f739e" stroke="#10739e" stroke-miterlimit="10" transform="translate(59,0)scale(-1,1)translate(-59,0)" pointer-events="all"/></g></g><g data-cell-id="Y9i8xWt3ksJYhu0SVQmK-3"><g><rect x="22" y="68" width="119" height="21" rx="1.26" ry="1.26" fill="#00828a" stroke="#00828a" pointer-events="all"/></g></g><g data-cell-id="Y9i8xWt3ksJYhu0SVQmK-4"><g><rect x="22" y="68" width="48" height="18" rx="1.08" ry="1.08" fill="#00828a" stroke="#00828a" pointer-events="all"/></g></g><g data-cell-id="Y9i8xWt3ksJYhu0SVQmK-5"><g><rect x="22.5" y="69.5" width="50.5" height="12" rx="0.72" ry="0.72" fill="#00828a" stroke="none" pointer-events="all"/></g></g><g data-cell-id="Y9i8xWt3ksJYhu0SVQmK-6"><g><rect x="72.1" y="71.17" width="6" height="7.5" rx="0.36" ry="0.36" fill="#0f739e" stroke="none" transform="rotate(-30,75.1,74.92)" pointer-events="all"/></g></g><g data-cell-id="Y9i8xWt3ksJYhu0SVQmK-7"><g><rect x="22.5" y="84" width="6" height="12.5" rx="0.36" ry="0.36" fill="#00828a" stroke="none" pointer-events="all"/></g></g><g data-cell-id="Y9i8xWt3ksJYhu0SVQmK-8"><g><rect x="27" y="77" width="109" height="74" rx="2.96" ry="2.96" fill="#e6e6e6" stroke="none" pointer-events="all"/><path d="M 31 76 Q 26 76 26 81 L 26 106.6 Q 81.5 128.8 137 106.6 L 137 81 Q 137 76 132 76 Z" fill="url(#mx-gradient-ffffff-0.9-ffffff-0.1-s-0)" stroke="none" pointer-events="all"/></g></g><g data-cell-id="Y9i8xWt3ksJYhu0SVQmK-10"><g><path d="M 98.5 119 L 75.5 119 L 75.5 49 L 55.5 49 L 87 11 L 118.5 49 L 98.5 49 Z" fill="url(#mx-gradient-00828a-1-ffffff-1-s-0)" stroke="#00828a" stroke-width="2" stroke-linejoin="round" stroke-miterlimit="10" pointer-events="all"/></g></g><g data-cell-id="Y9i8xWt3ksJYhu0SVQmK-9"><g><path d="M 82 166 L 28 166 Q 22 166 22.79 160.05 L 32.21 88.95 Q 33 83 39 83 L 147 83 Q 153 83 152.21 88.95 L 142.79 160.05 Q 142 166 136 166 Z" fill="#00828a" stroke="#00828a" stroke-miterlimit="10" pointer-events="all"/></g></g></g></g></g></svg>
