<?xml version="1.0" encoding="UTF-8"?>
<!DOCTYPE svg PUBLIC "-//W3C//DTD SVG 1.1//EN" "http://www.w3.org/Graphics/SVG/1.1/DTD/svg11.dtd">
<!-- File created by Marietta Hamberger, 2025. Licensed under CC BY 4.0 -->
<svg xmlns="http://www.w3.org/2000/svg" xmlns:xlink="http://www.w3.org/1999/xlink" version="1.1" width="170px" height="173px" viewBox="-0.5 -0.5 170 173"><defs/><g><g data-cell-id="0"><g data-cell-id="1"><g data-cell-id="joIWq9Z315CJYXdRIzkH-1"><g><rect x="0" y="-0.5" width="170" height="170" fill="none" stroke="none" pointer-events="all"/></g></g><g data-cell-id="joIWq9Z315CJYXdRIzkH-2"><g><rect x="7" y="6.15" width="155" height="155" fill="none" stroke="none" pointer-events="all"/></g></g><g data-cell-id="joIWq9Z315CJYXdRIzkH-3"><g><path d="M 30 103.5 C 30 97.42 54.62 92.5 85 92.5 C 99.59 92.5 113.58 93.66 123.89 95.72 C 134.21 97.78 140 100.58 140 103.5 L 140 141.5 C 140 147.58 115.38 152.5 85 152.5 C 54.62 152.5 30 147.58 30 141.5 Z" fill="#0075a2" stroke="#ffffff" stroke-width="9" stroke-miterlimit="10" pointer-events="all"/><path d="M 140 103.5 C 140 109.58 115.38 114.5 85 114.5 C 54.62 114.5 30 109.58 30 103.5" fill="none" stroke="#ffffff" stroke-width="9" stroke-miterlimit="10" pointer-events="all"/></g></g><g data-cell-id="joIWq9Z315CJYXdRIzkH-4"><g><path d="M 30 65.5 C 30 59.42 54.62 54.5 85 54.5 C 99.59 54.5 113.58 55.66 123.89 57.72 C 134.21 59.78 140 62.58 140 65.5 L 140 103.5 C 140 109.58 115.38 114.5 85 114.5 C 54.62 114.5 30 109.58 30 103.5 Z" fill="#0075a2" stroke="#ffffff" stroke-width="9" stroke-miterlimit="10" pointer-events="all"/><path d="M 140 65.5 C 140 71.58 115.38 76.5 85 76.5 C 54.62 76.5 30 71.58 30 65.5" fill="none" stroke="#ffffff" stroke-width="9" stroke-miterlimit="10" pointer-events="all"/></g></g><g data-cell-id="joIWq9Z315CJYXdRIzkH-5"><g><path d="M 30 27.5 C 30 21.42 54.62 16.5 85 16.5 C 99.59 16.5 113.58 17.66 123.89 19.72 C 134.21 21.78 140 24.58 140 27.5 L 140 65.5 C 140 71.58 115.38 76.5 85 76.5 C 54.62 76.5 30 71.58 30 65.5 Z" fill="#0075a2" stroke="#ffffff" stroke-width="9" stroke-miterlimit="10" pointer-events="all"/><path d="M 140 27.5 C 140 33.58 115.38 38.5 85 38.5 C 54.62 38.5 30 33.58 30 27.5" fill="none" stroke="#ffffff" stroke-width="9" stroke-miterlimit="10" pointer-events="all"/></g></g><g data-cell-id="joIWq9Z315CJYXdRIzkH-6"><g><rect x="81.41" y="117.5" width="78.59" height="22.41" rx="8.07" ry="8.07" fill="#0075a2" stroke="#0075a2" stroke-width="9" transform="rotate(90,120.7,128.71)" pointer-events="all"/></g></g><g data-cell-id="joIWq9Z315CJYXdRIzkH-7"><g><rect x="81.41" y="117.5" width="78.59" height="22.41" rx="8.07" ry="8.07" fill="#0075a2" stroke="#0075a2" stroke-width="9" pointer-events="all"/></g></g><g data-cell-id="joIWq9Z315CJYXdRIzkH-8"><g><rect x="81.41" y="117.5" width="78.59" height="22.41" rx="8.07" ry="8.07" fill="#ffffff" stroke="none" transform="rotate(90,120.7,128.71)" pointer-events="all"/></g></g><g data-cell-id="joIWq9Z315CJYXdRIzkH-9"><g><rect x="81.41" y="117.5" width="78.59" height="22.41" rx="8.07" ry="8.07" fill="#ffffff" stroke="none" pointer-events="all"/></g></g></g></g></g></svg>
