<?xml version="1.0" encoding="UTF-8"?>
<!DOCTYPE svg PUBLIC "-//W3C//DTD SVG 1.1//EN" "http://www.w3.org/Graphics/SVG/1.1/DTD/svg11.dtd">
<!-- File created by Marietta Hamberger, 2025. Licensed under CC BY 4.0 -->
<svg xmlns="http://www.w3.org/2000/svg" xmlns:xlink="http://www.w3.org/1999/xlink" version="1.1" width="170px" height="173px" viewBox="-0.5 -0.5 170 173"><defs/><g><g data-cell-id="0"><g data-cell-id="1"><g data-cell-id="W6ldMZxRK_OyTjbi6YoC-1"><g><rect x="0" y="-0.65" width="170" height="170" fill="none" stroke="none" pointer-events="all"/></g></g><g data-cell-id="W6ldMZxRK_OyTjbi6YoC-2"><g><rect x="7" y="6" width="155" height="155" fill="none" stroke="none" pointer-events="all"/></g></g><g data-cell-id="W6ldMZxRK_OyTjbi6YoC-3"><g><path d="M 30 103.35 C 30 97.27 54.62 92.35 85 92.35 C 99.59 92.35 113.58 93.51 123.89 95.57 C 134.21 97.63 140 100.43 140 103.35 L 140 141.35 C 140 147.43 115.38 152.35 85 152.35 C 54.62 152.35 30 147.43 30 141.35 Z" fill="#00828a" stroke="#ffffff" stroke-width="9" stroke-miterlimit="10" pointer-events="all"/><path d="M 140 103.35 C 140 109.43 115.38 114.35 85 114.35 C 54.62 114.35 30 109.43 30 103.35" fill="none" stroke="#ffffff" stroke-width="9" stroke-miterlimit="10" pointer-events="all"/></g></g><g data-cell-id="W6ldMZxRK_OyTjbi6YoC-4"><g><path d="M 30 65.35 C 30 59.27 54.62 54.35 85 54.35 C 99.59 54.35 113.58 55.51 123.89 57.57 C 134.21 59.63 140 62.43 140 65.35 L 140 103.35 C 140 109.43 115.38 114.35 85 114.35 C 54.62 114.35 30 109.43 30 103.35 Z" fill="#00828a" stroke="#ffffff" stroke-width="9" stroke-miterlimit="10" pointer-events="all"/><path d="M 140 65.35 C 140 71.43 115.38 76.35 85 76.35 C 54.62 76.35 30 71.43 30 65.35" fill="none" stroke="#ffffff" stroke-width="9" stroke-miterlimit="10" pointer-events="all"/></g></g><g data-cell-id="W6ldMZxRK_OyTjbi6YoC-5"><g><path d="M 30 27.35 C 30 21.27 54.62 16.35 85 16.35 C 99.59 16.35 113.58 17.51 123.89 19.57 C 134.21 21.63 140 24.43 140 27.35 L 140 65.35 C 140 71.43 115.38 76.35 85 76.35 C 54.62 76.35 30 71.43 30 65.35 Z" fill="#00828a" stroke="#ffffff" stroke-width="9" stroke-miterlimit="10" pointer-events="all"/><path d="M 140 27.35 C 140 33.43 115.38 38.35 85 38.35 C 54.62 38.35 30 33.43 30 27.35" fill="none" stroke="#ffffff" stroke-width="9" stroke-miterlimit="10" pointer-events="all"/></g></g><g data-cell-id="W6ldMZxRK_OyTjbi6YoC-6"><g><rect x="81.41" y="117.35" width="78.59" height="22.41" rx="8.07" ry="8.07" fill="#00828a" stroke="#00828a" stroke-width="9" transform="rotate(90,120.7,128.55)" pointer-events="all"/></g></g><g data-cell-id="W6ldMZxRK_OyTjbi6YoC-7"><g><rect x="81.41" y="117.35" width="78.59" height="22.41" rx="8.07" ry="8.07" fill="#00828a" stroke="#00828a" stroke-width="9" pointer-events="all"/></g></g><g data-cell-id="W6ldMZxRK_OyTjbi6YoC-9"><g><rect x="81.41" y="117.35" width="78.59" height="22.41" rx="8.07" ry="8.07" fill="#ffffff" stroke="none" transform="rotate(90,120.7,128.55)" pointer-events="all"/></g></g><g data-cell-id="W6ldMZxRK_OyTjbi6YoC-10"><g><rect x="81.41" y="117.35" width="78.59" height="22.41" rx="8.07" ry="8.07" fill="#ffffff" stroke="none" pointer-events="all"/></g></g></g></g></g></svg>
