<?xml version="1.0" encoding="UTF-8"?>
<!DOCTYPE svg PUBLIC "-//W3C//DTD SVG 1.1//EN" "http://www.w3.org/Graphics/SVG/1.1/DTD/svg11.dtd">
<!-- File created by Marietta Hamberger, 2025. Licensed under CC BY 4.0 -->
<svg xmlns="http://www.w3.org/2000/svg" xmlns:xlink="http://www.w3.org/1999/xlink" version="1.1" width="360px" height="360px" viewBox="-0.5 -0.5 360 360"><defs><radialGradient x1="0%" y1="0%" x2="0%" y2="0%" id="mx-gradient-a3d2d9-1-00595e-1-r-0"><stop offset="0%" style="stop-color: rgb(163, 210, 217); stop-opacity: 1;"/><stop offset="100%" style="stop-color: rgb(0, 89, 94); stop-opacity: 1;"/></radialGradient><radialGradient x1="0%" y1="0%" x2="0%" y2="0%" id="mx-gradient-ffffff-1-a3d2d9-1-r-0"><stop offset="0%" style="stop-color: rgb(255, 255, 255); stop-opacity: 1;"/><stop offset="100%" style="stop-color: rgb(163, 210, 217); stop-opacity: 1;"/></radialGradient><radialGradient x1="0%" y1="0%" x2="0%" y2="0%" id="mx-gradient-bac8d3-1-00828a-1-r-0"><stop offset="0%" style="stop-color: rgb(186, 200, 211); stop-opacity: 1;"/><stop offset="100%" style="stop-color: rgb(0, 130, 138); stop-opacity: 1;"/></radialGradient></defs><g><g data-cell-id="0"><g data-cell-id="1"><g data-cell-id="ZjMiNUUoFGHvls6h_vlo-30"><g><rect x="0" y="0" width="360" height="360" rx="10.8" ry="10.8" fill="none" stroke="none" pointer-events="all"/></g></g><g data-cell-id="ZjMiNUUoFGHvls6h_vlo-2"><g><path d="M 46 15 L 254 15 L 316 77 L 316 345 L 46 345 L 46 15 Z" fill="rgb(255, 255, 255)" stroke="rgb(0, 0, 0)" stroke-miterlimit="10" pointer-events="all"/><path d="M 254 15 L 254 77 L 316 77 Z" fill-opacity="0.05" fill="#000000" stroke="none" pointer-events="all"/><path d="M 254 15 L 254 77 L 316 77" fill="none" stroke="rgb(0, 0, 0)" stroke-miterlimit="10" pointer-events="all"/></g></g><g data-cell-id="ZjMiNUUoFGHvls6h_vlo-3"><g><rect x="79" y="57" width="96" height="106" fill="#a3d2d9" stroke="none" pointer-events="all"/></g></g><g data-cell-id="ZjMiNUUoFGHvls6h_vlo-4"><g><ellipse cx="106" cy="81" rx="15" ry="15" fill="rgb(255, 255, 255)" stroke="none" pointer-events="all"/></g></g><g data-cell-id="ZjMiNUUoFGHvls6h_vlo-5"><g><path d="M 96 106 Q 136 106 136 141 Q 136 176 96 176 Z" fill="rgb(255, 255, 255)" stroke="none" transform="rotate(-90,116,141)" pointer-events="all"/></g></g><g data-cell-id="ZjMiNUUoFGHvls6h_vlo-6"><g><path d="M 118.15 106.16 Q 175.15 106.16 175.15 132.57 Q 175.15 158.98 118.15 158.98 Z" fill="rgb(255, 255, 255)" stroke="none" transform="rotate(-90,146.65,132.57)" pointer-events="all"/></g></g><g data-cell-id="ZjMiNUUoFGHvls6h_vlo-7"><g><rect x="79" y="181" width="170" height="20" rx="3" ry="3" fill="#a3d2d9" stroke="none" pointer-events="all"/></g></g><g data-cell-id="ZjMiNUUoFGHvls6h_vlo-8"><g><rect x="79" y="216.57" width="132" height="20" rx="3" ry="3" fill="#a3d2d9" stroke="none" pointer-events="all"/></g></g><g data-cell-id="ZjMiNUUoFGHvls6h_vlo-9"><g><rect x="79" y="256" width="202" height="20" rx="3" ry="3" fill="#a3d2d9" stroke="none" pointer-events="all"/></g></g><g data-cell-id="ZjMiNUUoFGHvls6h_vlo-10"><g><rect x="79" y="296" width="202" height="20" rx="3" ry="3" fill="#a3d2d9" stroke="none" pointer-events="all"/></g></g><g data-cell-id="ZjMiNUUoFGHvls6h_vlo-11"><g><rect x="191" y="106" width="90" height="20" rx="3" ry="3" fill="#a3d2d9" stroke="none" pointer-events="all"/></g></g><g data-cell-id="ZjMiNUUoFGHvls6h_vlo-12"><g><rect x="191" y="143" width="90" height="20" rx="3" ry="3" fill="#a3d2d9" stroke="none" pointer-events="all"/></g></g><g data-cell-id="ZjMiNUUoFGHvls6h_vlo-13"><g><path d="M 194.78 194.41 C 194.78 192.2 203.43 190.41 214.09 190.41 C 219.22 190.41 224.13 190.83 227.75 191.58 C 231.38 192.33 233.41 193.35 233.41 194.41 L 233.41 222.84 C 233.41 223.9 231.38 224.92 227.75 225.67 C 224.13 226.42 219.22 226.84 214.09 226.84 C 208.97 226.84 204.06 226.42 200.44 225.67 C 196.81 224.92 194.78 223.9 194.78 222.84 Z" fill="url(#mx-gradient-a3d2d9-1-00595e-1-r-0)" stroke="#0e8088" stroke-miterlimit="10" transform="rotate(-45,214.09,208.63)" pointer-events="all"/><path d="M 233.41 194.41 C 233.41 195.47 231.38 196.49 227.75 197.24 C 224.13 197.99 219.22 198.41 214.09 198.41 C 208.97 198.41 204.06 197.99 200.44 197.24 C 196.81 196.49 194.78 195.47 194.78 194.41" fill="none" stroke="#0e8088" stroke-miterlimit="10" transform="rotate(-45,214.09,208.63)" pointer-events="all"/></g></g><g data-cell-id="ZjMiNUUoFGHvls6h_vlo-14"><g><ellipse cx="153.91" cy="147.34" rx="79.5" ry="79.5" fill="url(#mx-gradient-ffffff-1-a3d2d9-1-r-0)" stroke="#00828a" stroke-width="21" pointer-events="all"/></g></g><g data-cell-id="ZjMiNUUoFGHvls6h_vlo-15"><g><path d="M 229.78 202.41 C 229.78 200.2 243.88 198.41 261.28 198.41 C 269.63 198.41 277.65 198.83 283.55 199.58 C 289.46 200.33 292.78 201.35 292.78 202.41 L 292.78 310.02 C 292.78 312.23 278.68 314.02 261.28 314.02 C 243.88 314.02 229.78 312.23 229.78 310.02 Z" fill="url(#mx-gradient-bac8d3-1-00828a-1-r-0)" stroke="none" transform="rotate(-45,261.28,256.21)" pointer-events="all"/><path d="M 292.78 202.41 C 292.78 204.62 278.68 206.41 261.28 206.41 C 243.88 206.41 229.78 204.62 229.78 202.41" fill="none" stroke="none" transform="rotate(-45,261.28,256.21)" pointer-events="all"/></g></g><g data-cell-id="ZjMiNUUoFGHvls6h_vlo-16"><g><ellipse cx="154.91" cy="147.34" rx="79.5" ry="79.5" fill="none" stroke="#00595e" stroke-width="8" pointer-events="all"/></g></g><g data-cell-id="ZjMiNUUoFGHvls6h_vlo-17"><g><path d="M 295.59 269.16 Q 315.59 269.16 315.59 300.66 Q 315.59 332.16 295.59 332.16 Z" fill="url(#mx-gradient-a3d2d9-1-00595e-1-r-0)" stroke="none" transform="rotate(45,305.59,300.66)" pointer-events="all"/></g></g><g data-cell-id="ZjMiNUUoFGHvls6h_vlo-18"><g/><g data-cell-id="ZjMiNUUoFGHvls6h_vlo-19"><g/></g><g data-cell-id="ZjMiNUUoFGHvls6h_vlo-20"><g><path d="M 175.8 191.54 Q 175.8 180.39 155.11 170.07 Q 134.41 159.76 134.41 149.72" fill="none" stroke="#bf8854" stroke-width="11" stroke-linecap="round" stroke-miterlimit="10" pointer-events="stroke"/></g></g><g data-cell-id="ZjMiNUUoFGHvls6h_vlo-21"><g><path d="M 176.41 146.66 Q 176.41 135.51 155.71 125.19 Q 135.02 114.88 135.02 104.84" fill="none" stroke="#bf8854" stroke-width="11" stroke-linecap="round" stroke-miterlimit="10" pointer-events="stroke"/></g></g><g data-cell-id="ZjMiNUUoFGHvls6h_vlo-22"><g><path d="M 134.41 150 Q 134.41 138.85 155.11 128.54 Q 175.8 118.22 175.8 108.19" fill="none" stroke="#bf8854" stroke-width="11" stroke-linecap="round" stroke-miterlimit="10" pointer-events="stroke"/></g></g><g data-cell-id="ZjMiNUUoFGHvls6h_vlo-23"><g><path d="M 135.02 187.92 Q 135.02 176.76 155.71 166.45 Q 176.41 156.14 176.41 146.1" fill="none" stroke="#bf8854" stroke-width="11" stroke-linecap="round" stroke-miterlimit="10" pointer-events="stroke"/></g></g><g data-cell-id="ZjMiNUUoFGHvls6h_vlo-24"><g><rect x="138.06" y="109.86" width="22.52" height="5.58" rx="2.79" ry="2.79" fill="#bf8854" stroke="#bf8854" pointer-events="all"/></g></g><g data-cell-id="ZjMiNUUoFGHvls6h_vlo-25"><g><rect x="152.67" y="136.06" width="22.52" height="5.58" rx="2.79" ry="2.79" fill="#bf8854" stroke="#bf8854" pointer-events="all"/></g></g><g data-cell-id="ZjMiNUUoFGHvls6h_vlo-26"><g><rect x="165.45" y="146.1" width="10.35" height="5.58" rx="2.79" ry="2.79" fill="#bf8854" stroke="#bf8854" pointer-events="all"/></g></g><g data-cell-id="ZjMiNUUoFGHvls6h_vlo-27"><g><rect x="135.02" y="146.1" width="26.78" height="5.58" rx="2.79" ry="2.79" fill="#bf8854" stroke="#bf8854" pointer-events="all"/></g></g><g data-cell-id="ZjMiNUUoFGHvls6h_vlo-28"><g><rect x="137.15" y="156.14" width="16.13" height="5.58" rx="2.79" ry="2.79" fill="#bf8854" stroke="#bf8854" pointer-events="all"/></g></g><g data-cell-id="ZjMiNUUoFGHvls6h_vlo-29"><g><rect x="149.49" y="178.99" width="22.52" height="5.58" rx="2.79" ry="2.79" fill="#bf8854" stroke="#bf8854" pointer-events="all"/></g></g></g><g data-cell-id="ZjMiNUUoFGHvls6h_vlo-32"><g><rect x="108" y="269.16" width="146" height="20" rx="10" ry="10" fill="#bf8854" stroke="none" transform="rotate(-45,181,279.16)" pointer-events="all"/></g></g><g data-cell-id="ZjMiNUUoFGHvls6h_vlo-33"><g><rect x="108" y="269.16" width="146" height="20" rx="10" ry="10" fill="#bf8854" stroke="none" transform="rotate(45,181,279.16)" pointer-events="all"/></g></g></g></g></g></svg>
