<?xml version="1.0" encoding="UTF-8"?>
<!DOCTYPE svg PUBLIC "-//W3C//DTD SVG 1.1//EN" "http://www.w3.org/Graphics/SVG/1.1/DTD/svg11.dtd">
<!-- File created by Marietta Hamberger, 2025. Licensed under CC BY 4.0 -->
<svg xmlns="http://www.w3.org/2000/svg" xmlns:xlink="http://www.w3.org/1999/xlink" version="1.1" width="120px" height="115px" viewBox="-0.5 -0.5 120 115"><defs><linearGradient x1="0%" y1="0%" x2="0%" y2="100%" id="mx-gradient-ffffff-1-c1e5e8-1-s-0"><stop offset="0%" style="stop-color: rgb(255, 255, 255); stop-opacity: 1;"/><stop offset="100%" style="stop-color: rgb(193, 229, 232); stop-opacity: 1;"/></linearGradient><linearGradient x1="0%" y1="0%" x2="0%" y2="100%" id="mx-gradient-ffffff-0.9-ffffff-0.1-s-0"><stop offset="0%" style="stop-color: rgb(255, 255, 255); stop-opacity: 0.9;"/><stop offset="100%" style="stop-color: rgb(255, 255, 255); stop-opacity: 0.1;"/></linearGradient></defs><g><g data-cell-id="0"><g data-cell-id="1"><g data-cell-id="I1lfSzSl1-BNWXeEvOaM-5"><g><rect x="0" y="0" width="120" height="115" rx="17.25" ry="17.25" fill="url(#mx-gradient-ffffff-1-c1e5e8-1-s-0)" stroke="none" pointer-events="all"/><path d="M 18.4 -1 Q -1 -1 -1 18.4 L -1 46 Q 60 80.5 121 46 L 121 18.4 Q 121 -1 101.6 -1 Z" fill="url(#mx-gradient-ffffff-0.9-ffffff-0.1-s-0)" stroke="none" pointer-events="all"/></g></g><g data-cell-id="I1lfSzSl1-BNWXeEvOaM-1"><g><path d="M 94 92 Q 94 72 60 53.5 Q 26 35 26 17" fill="none" stroke="#ff8000" stroke-width="11" stroke-linecap="round" stroke-miterlimit="10" pointer-events="stroke"/></g></g><g data-cell-id="I1lfSzSl1-BNWXeEvOaM-2"><g><path d="M 25 98 Q 25 78 59 59.5 Q 93 41 93 23" fill="none" stroke="#6c8ebf" stroke-width="11" stroke-linecap="round" stroke-miterlimit="10" pointer-events="stroke"/></g></g><g data-cell-id="I1lfSzSl1-BNWXeEvOaM-3"><g><rect x="31" y="26" width="37" height="10" rx="5" ry="5" fill="#ff8001" stroke="none" pointer-events="all"/></g></g><g data-cell-id="I1lfSzSl1-BNWXeEvOaM-4"><g><rect x="55" y="73" width="37" height="10" rx="5" ry="5" fill="#ff8001" stroke="none" pointer-events="all"/></g></g></g></g></g></svg>
