<?xml version="1.0" encoding="UTF-8"?>
<!DOCTYPE svg PUBLIC "-//W3C//DTD SVG 1.1//EN" "http://www.w3.org/Graphics/SVG/1.1/DTD/svg11.dtd">
<!-- File created by Marietta Hamberger, 2025. Licensed under CC BY 4.0 -->
<svg xmlns="http://www.w3.org/2000/svg" xmlns:xlink="http://www.w3.org/1999/xlink" version="1.1" width="146px" height="146px" viewBox="-0.5 -0.5 146 146"><defs><linearGradient x1="0%" y1="0%" x2="0%" y2="100%" id="mx-gradient-ffffff-1-c1e5e8-1-s-0"><stop offset="0%" style="stop-color: rgb(255, 255, 255); stop-opacity: 1;"/><stop offset="100%" style="stop-color: rgb(193, 229, 232); stop-opacity: 1;"/></linearGradient><linearGradient x1="0%" y1="0%" x2="0%" y2="100%" id="mx-gradient-ffffff-0.9-ffffff-0.1-s-0"><stop offset="0%" style="stop-color: rgb(255, 255, 255); stop-opacity: 0.9;"/><stop offset="100%" style="stop-color: rgb(255, 255, 255); stop-opacity: 0.1;"/></linearGradient></defs><g><g data-cell-id="0"><g data-cell-id="1"><g data-cell-id="I1lfSzSl1-BNWXeEvOaM-5"><g><rect x="-0.75" y="-0.75" width="145.5" height="145.5" rx="21.82" ry="21.82" fill="none" stroke="none" pointer-events="all"/></g></g><g data-cell-id="I1lfSzSl1-BNWXeEvOaM-6"><g><rect x="12" y="12" width="120" height="120" rx="18" ry="18" fill="url(#mx-gradient-ffffff-1-c1e5e8-1-s-0)" stroke="none" pointer-events="all"/><path d="M 31.15 11 Q 11 11 11 31.15 L 11 60 Q 72 96 133 60 L 133 31.15 Q 133 11 112.85 11 Z" fill="url(#mx-gradient-ffffff-0.9-ffffff-0.1-s-0)" stroke="none" pointer-events="all"/></g></g><g data-cell-id="I1lfSzSl1-BNWXeEvOaM-1"><g><path d="M 106 109 Q 106 89 72 70.5 Q 38 52 38 34" fill="none" stroke="#ff8000" stroke-width="11" stroke-linecap="round" stroke-miterlimit="10" pointer-events="stroke"/></g></g><g data-cell-id="I1lfSzSl1-BNWXeEvOaM-2"><g><path d="M 37 115 Q 37 95 71 76.5 Q 105 58 105 40" fill="none" stroke="#6c8ebf" stroke-width="11" stroke-linecap="round" stroke-miterlimit="10" pointer-events="stroke"/></g></g><g data-cell-id="I1lfSzSl1-BNWXeEvOaM-3"><g><rect x="43" y="43" width="37" height="10" rx="5" ry="5" fill="#ff8001" stroke="none" pointer-events="all"/></g></g><g data-cell-id="I1lfSzSl1-BNWXeEvOaM-4"><g><rect x="67" y="90" width="37" height="10" rx="5" ry="5" fill="#ff8001" stroke="none" pointer-events="all"/></g></g></g></g></g></svg>
