<?xml version="1.0" encoding="UTF-8"?>
<!DOCTYPE svg PUBLIC "-//W3C//DTD SVG 1.1//EN" "http://www.w3.org/Graphics/SVG/1.1/DTD/svg11.dtd">
<!-- File created by Marietta Hamberger, 2025. Licensed under CC BY 4.0 -->
<svg xmlns="http://www.w3.org/2000/svg" xmlns:xlink="http://www.w3.org/1999/xlink" version="1.1" width="191px" height="175px" viewBox="-0.5 -0.5 191 175"><defs/><g><g data-cell-id="0"><g data-cell-id="1"><g data-cell-id="qxnPvxYa4JP0hAI_ss-s-1"><g><rect x="19" y="0" width="171" height="171" rx="25.65" ry="25.65" fill="none" stroke="none" pointer-events="all"/></g></g><g data-cell-id="qxnPvxYa4JP0hAI_ss-s-2"><g><rect x="0" y="9" width="120" height="120" fill="none" stroke="none" pointer-events="all"/></g></g><g data-cell-id="qxnPvxYa4JP0hAI_ss-s-3"><g><path d="M 18 48.5 L 54 39.4 L 63 3 L 72 39.4 L 108 48.5 L 72 57.6 L 63 94 L 54 57.6 Z" fill-opacity="0.8" fill="#ffffff" stroke="none" pointer-events="all"/></g></g><g data-cell-id="qxnPvxYa4JP0hAI_ss-s-4"><g><path d="M 156.26 52.52 L 165.7 71.23" fill="none" stroke="#ffffff" stroke-width="7" stroke-miterlimit="10" pointer-events="stroke"/></g></g><g data-cell-id="qxnPvxYa4JP0hAI_ss-s-5"><g><ellipse cx="150" cy="40" rx="14" ry="14" fill="rgb(255, 255, 255)" stroke="none" pointer-events="all"/></g></g><g data-cell-id="qxnPvxYa4JP0hAI_ss-s-6"><g><path d="M 159.25 84.44 L 136.61 89.7" fill="none" stroke="#ffffff" stroke-width="7" stroke-miterlimit="10" pointer-events="stroke"/></g></g><g data-cell-id="qxnPvxYa4JP0hAI_ss-s-7"><g><ellipse cx="171" cy="82" rx="12" ry="12" fill="none" stroke="#ffffff" stroke-width="14" pointer-events="all"/></g></g><g data-cell-id="qxnPvxYa4JP0hAI_ss-s-8"><g><ellipse cx="118.5" cy="93.5" rx="18.5" ry="18.5" fill="none" stroke="#ffffff" stroke-width="6" pointer-events="all"/></g></g><g data-cell-id="qxnPvxYa4JP0hAI_ss-s-11"><g/><g data-cell-id="qxnPvxYa4JP0hAI_ss-s-12"><g><path d="M 27 107 L 47 107 Q 66 107 66 126 Q 66 145 47 145 L 27 145 Z" fill-opacity="0.6" fill="rgb(255, 255, 255)" stroke="#ffffff" stroke-opacity="0.6" stroke-width="5" stroke-miterlimit="10" transform="rotate(-150,46.5,126)" pointer-events="all"/></g></g><g data-cell-id="qxnPvxYa4JP0hAI_ss-s-13"><g><path d="M 60 126 L 80 126 Q 99 126 99 145 Q 99 164 80 164 L 60 164 Z" fill="rgb(255, 255, 255)" stroke="#ffffff" stroke-width="5" stroke-miterlimit="10" transform="rotate(30,79.5,145)" pointer-events="all"/></g></g></g></g></g></g></svg>
