<?xml version="1.0" encoding="UTF-8"?>
<!DOCTYPE svg PUBLIC "-//W3C//DTD SVG 1.1//EN" "http://www.w3.org/Graphics/SVG/1.1/DTD/svg11.dtd">
<!-- File created by Marietta Hamberger, 2025. Licensed under CC BY 4.0 -->
<svg xmlns="http://www.w3.org/2000/svg" xmlns:xlink="http://www.w3.org/1999/xlink" version="1.1" width="141px" height="141px" viewBox="-0.5 -0.5 141 141"><defs/><g><g data-cell-id="0"><g data-cell-id="1"><g data-cell-id="aYg-Ars6Sff7j9bfiQtz-1"><g><path d="M 19 70 C 19 42.39 41.39 20 69 20 C 82.26 20 94.98 25.27 104.36 34.64 C 113.73 44.02 119 56.74 119 70 C 119 83.26 113.73 95.98 104.36 105.36 C 94.98 114.73 82.26 120 69 120 C 55.74 120 43.02 114.73 33.64 105.36 C 24.27 95.98 19 83.26 19 70 Z M 69 45 C 55.19 45 44 56.19 44 70 C 44 83.81 55.19 95 69 95 C 82.81 95 94 83.81 94 70 C 94 56.19 82.81 45 69 45 Z" fill="#0f8088" stroke="none" pointer-events="all"/></g></g><g data-cell-id="gLMVKG7bNAgdz5CDQTih-1"><g><rect x="54" y="0" width="30" height="40" rx="4.5" ry="4.5" fill="#0f8088" stroke="none" pointer-events="all"/></g></g><g data-cell-id="gLMVKG7bNAgdz5CDQTih-2"><g><rect x="54" y="100" width="30" height="40" rx="4.5" ry="4.5" fill="#0f8088" stroke="none" pointer-events="all"/></g></g><g data-cell-id="gLMVKG7bNAgdz5CDQTih-5"><g/><g data-cell-id="gLMVKG7bNAgdz5CDQTih-3"><g><rect x="105" y="50" width="30" height="40" rx="4.5" ry="4.5" fill="#0f8088" stroke="none" transform="rotate(90,120,70)" pointer-events="all"/></g></g><g data-cell-id="gLMVKG7bNAgdz5CDQTih-4"><g><rect x="5" y="50" width="30" height="40" rx="4.5" ry="4.5" fill="#0f8088" stroke="none" transform="rotate(90,20,70)" pointer-events="all"/></g></g></g><g data-cell-id="gLMVKG7bNAgdz5CDQTih-6"><g/><g data-cell-id="gLMVKG7bNAgdz5CDQTih-7"><g><rect x="91" y="16" width="30" height="40" rx="4.5" ry="4.5" fill="#0f8088" stroke="none" transform="rotate(45,106,36)" pointer-events="all"/></g></g><g data-cell-id="gLMVKG7bNAgdz5CDQTih-8"><g><rect x="21" y="86" width="30" height="40" rx="4.5" ry="4.5" fill="#0f8088" stroke="none" transform="rotate(45,36,106)" pointer-events="all"/></g></g></g><g data-cell-id="gLMVKG7bNAgdz5CDQTih-9"><g/><g data-cell-id="gLMVKG7bNAgdz5CDQTih-10"><g><rect x="90" y="85" width="30" height="40" rx="4.5" ry="4.5" fill="#0f8088" stroke="none" transform="rotate(135,105,105)" pointer-events="all"/></g></g><g data-cell-id="gLMVKG7bNAgdz5CDQTih-11"><g><rect x="20" y="15" width="30" height="40" rx="4.5" ry="4.5" fill="#0f8088" stroke="none" transform="rotate(135,35,35)" pointer-events="all"/></g></g></g></g></g></g></svg>
