<?xml version="1.0" encoding="UTF-8"?>
<!DOCTYPE svg PUBLIC "-//W3C//DTD SVG 1.1//EN" "http://www.w3.org/Graphics/SVG/1.1/DTD/svg11.dtd">
<!-- File created by Marietta Hamberger, 2025. Licensed under CC BY 4.0 -->
<svg xmlns="http://www.w3.org/2000/svg" xmlns:xlink="http://www.w3.org/1999/xlink" version="1.1" width="142px" height="142px" viewBox="-0.5 -0.5 142 142"><defs/><g><g data-cell-id="0"><g data-cell-id="1"><g data-cell-id="FwaRC0TOlQdd4ITR1rU5-1"><g/><g data-cell-id="FwaRC0TOlQdd4ITR1rU5-2"><g><rect x="14.71" y="11.71" width="110" height="110" fill="none" stroke="none" pointer-events="all"/></g></g><g data-cell-id="FwaRC0TOlQdd4ITR1rU5-3"><g><path d="M 119.35 82.32 C 114.38 103.13 96.71 118.48 75.41 120.49 C 54.1 122.5 33.88 110.73 25.1 91.21 C 16.33 71.69 20.96 48.75 36.6 34.15 C 52.25 19.55 75.46 16.53 94.32 26.64 L 85.11 43.83 C 73.61 37.66 59.45 39.5 49.91 48.41 C 40.36 57.31 37.54 71.31 42.89 83.21 C 48.24 95.12 60.58 102.3 73.58 101.08 C 86.57 99.85 97.35 90.49 100.38 77.79 Z" fill="#d7f2ff" stroke="none" transform="rotate(-135,70.71,70.71)" pointer-events="all"/></g></g><g data-cell-id="FwaRC0TOlQdd4ITR1rU5-4"><g><path d="M 17.71 37.71 L 17.71 22.71 Q 17.71 12.71 26.19 18.01 L 49.23 32.41 Q 57.71 37.71 49.23 43.01 L 26.19 57.41 Q 17.71 62.71 17.71 52.71 Z" fill="#d7f2ff" stroke="none" transform="rotate(-195,37.71,37.71)" pointer-events="all"/></g></g></g></g></g></g></svg>
