<?xml version="1.0" encoding="UTF-8"?>
<!DOCTYPE svg PUBLIC "-//W3C//DTD SVG 1.1//EN" "http://www.w3.org/Graphics/SVG/1.1/DTD/svg11.dtd">
<!-- File created by Marietta Hamberger, 2025. Licensed under CC BY 4.0 -->
<svg xmlns="http://www.w3.org/2000/svg" xmlns:xlink="http://www.w3.org/1999/xlink" version="1.1" width="134px" height="134px" viewBox="-0.5 -0.5 134 134"><defs/><g><g data-cell-id="0"><g data-cell-id="1"><g data-cell-id="jnX4YLKOpYsSmwHHITz8-6"><g/><g data-cell-id="jnX4YLKOpYsSmwHHITz8-7"><g><rect x="0" y="-1" width="134" height="134" fill="none" stroke="none" transform="rotate(-90,67,66)" pointer-events="all"/></g></g><g data-cell-id="jnX4YLKOpYsSmwHHITz8-11"><g><path d="M 50.51 18.8 C 76.3 9.78 104.56 23.15 113.95 48.81 C 123.35 74.47 110.4 102.92 84.88 112.69 C 59.36 122.47 30.72 109.94 20.58 84.57 L 38.68 77.33 C 44.87 92.8 62.34 100.44 77.91 94.48 C 93.47 88.52 101.37 71.17 95.64 55.52 C 89.91 39.86 72.68 31.71 56.94 37.21 Z" fill="#00828a" stroke="none" pointer-events="all"/></g></g><g data-cell-id="jnX4YLKOpYsSmwHHITz8-12"><g><path d="M 27.01 34.27 L 27.01 16.27 Q 27.01 11.27 31.07 14.19 L 54.95 31.35 Q 59.01 34.27 54.95 37.19 L 31.07 54.35 Q 27.01 57.27 27.01 52.27 Z" fill="#00828a" stroke="none" transform="rotate(-210,43.01,34.27)" pointer-events="all"/></g></g></g></g></g></g></svg>
