<?xml version="1.0" encoding="UTF-8"?>
<!DOCTYPE svg PUBLIC "-//W3C//DTD SVG 1.1//EN" "http://www.w3.org/Graphics/SVG/1.1/DTD/svg11.dtd">
<!-- File created by Marietta Hamberger, 2025. Licensed under CC BY 4.0 -->
<svg xmlns="http://www.w3.org/2000/svg" xmlns:xlink="http://www.w3.org/1999/xlink" version="1.1" width="119px" height="120px" viewBox="-0.5 -0.5 119 120"><defs/><g><g data-cell-id="0"><g data-cell-id="1"><g data-cell-id="qkWgqyd0DYqKV8OiQhsU-24"><g><rect x="-0.5" y="-0.13" width="118" height="120" fill="none" stroke="none" pointer-events="all"/></g></g><g data-cell-id="qkWgqyd0DYqKV8OiQhsU-1"><g><rect x="4" y="83" width="8" height="30" rx="1.2" ry="1.2" fill="rgb(255, 255, 255)" stroke="none" pointer-events="all"/></g></g><g data-cell-id="qkWgqyd0DYqKV8OiQhsU-2"><g><rect x="17.5" y="91.5" width="8" height="35" rx="1.2" ry="1.2" fill="rgb(255, 255, 255)" stroke="none" transform="rotate(90,21.5,109)" pointer-events="all"/></g></g><g data-cell-id="qkWgqyd0DYqKV8OiQhsU-3"><g><rect x="5" y="7" width="8" height="30" rx="1.2" ry="1.2" fill="rgb(255, 255, 255)" stroke="none" pointer-events="all"/></g></g><g data-cell-id="qkWgqyd0DYqKV8OiQhsU-4"><g><rect x="18.5" y="-7" width="8" height="35" rx="1.2" ry="1.2" fill="rgb(255, 255, 255)" stroke="none" transform="rotate(90,22.5,10.5)" pointer-events="all"/></g></g><g data-cell-id="qkWgqyd0DYqKV8OiQhsU-5"><g><rect x="91" y="91.5" width="8" height="35" rx="1.2" ry="1.2" fill="rgb(255, 255, 255)" stroke="none" transform="rotate(90,95,109)" pointer-events="all"/></g></g><g data-cell-id="qkWgqyd0DYqKV8OiQhsU-6"><g><rect x="104.5" y="83" width="8" height="30" rx="1.2" ry="1.2" fill="rgb(255, 255, 255)" stroke="none" pointer-events="all"/></g></g><g data-cell-id="qkWgqyd0DYqKV8OiQhsU-7"><g><rect x="104.5" y="7" width="8" height="30" rx="1.2" ry="1.2" fill="rgb(255, 255, 255)" stroke="none" transform="rotate(-180,108.5,22)" pointer-events="all"/></g></g><g data-cell-id="qkWgqyd0DYqKV8OiQhsU-8"><g><rect x="90.5" y="-7" width="8" height="35" rx="1.2" ry="1.2" fill="rgb(255, 255, 255)" stroke="none" transform="rotate(-90,94.5,10.5)" pointer-events="all"/></g></g><g data-cell-id="qkWgqyd0DYqKV8OiQhsU-26"><g><path d="M 29.75 18.49 L 66.25 18.49 L 87.25 39.49 L 87.25 101.24 L 29.75 101.24 L 29.75 18.49 Z" fill="rgb(255, 255, 255)" stroke="none" pointer-events="all"/><path d="M 66.25 18.49 L 66.25 39.49 L 87.25 39.49 Z" fill-opacity="0.4" fill="#000000" stroke="none" pointer-events="all"/><path d="M 66.25 18.49 L 66.25 39.49 L 87.25 39.49" fill="none" stroke="none" pointer-events="all"/></g></g></g></g></g></svg>
