<?xml version="1.0" encoding="UTF-8"?>
<!DOCTYPE svg PUBLIC "-//W3C//DTD SVG 1.1//EN" "http://www.w3.org/Graphics/SVG/1.1/DTD/svg11.dtd">
<!-- File created by Marietta Hamberger, 2025. Licensed under CC BY 4.0 -->
<svg xmlns="http://www.w3.org/2000/svg" xmlns:xlink="http://www.w3.org/1999/xlink" version="1.1" width="139px" height="139px" viewBox="-0.5 -0.5 139 139"><defs/><g><g data-cell-id="0"><g data-cell-id="1"><g data-cell-id="9Ok8MMlOQk_Derrz2BPk-1"><g><rect x="0" y="0" width="139" height="139" fill="none" stroke="none" pointer-events="all"/></g></g><g data-cell-id="9Ok8MMlOQk_Derrz2BPk-2"><g><path d="M 17 54 C 17 31.91 34.91 14 57 14 C 67.61 14 77.78 18.21 85.28 25.72 C 92.79 33.22 97 43.39 97 54 C 97 64.61 92.79 74.78 85.28 82.28 C 77.78 89.79 67.61 94 57 94 C 46.39 94 36.22 89.79 28.72 82.28 C 21.21 74.78 17 64.61 17 54 Z M 57 29 C 43.19 29 32 40.19 32 54 C 32 67.81 43.19 79 57 79 C 70.81 79 82 67.81 82 54 C 82 40.19 70.81 29 57 29 Z" fill="#00828a" stroke="none" pointer-events="all"/></g></g><g data-cell-id="9Ok8MMlOQk_Derrz2BPk-3"><g><rect x="68" y="88" width="60" height="20" rx="9.4" ry="9.4" fill="#00828a" stroke="none" transform="rotate(45,98,98)" pointer-events="all"/></g></g></g></g></g></svg>
