<?xml version="1.0" encoding="UTF-8"?>
<!DOCTYPE svg PUBLIC "-//W3C//DTD SVG 1.1//EN" "http://www.w3.org/Graphics/SVG/1.1/DTD/svg11.dtd">
<!-- File created by Marietta Hamberger, 2025. Licensed under CC BY 4.0 -->
<svg xmlns="http://www.w3.org/2000/svg" xmlns:xlink="http://www.w3.org/1999/xlink" version="1.1" width="375px" height="219px" viewBox="-0.5 -0.5 375 219"><defs/><g><g data-cell-id="0"><g data-cell-id="1"><g data-cell-id="6cVsWqSMW9BJ6VjOZ-az-1"><g><rect x="0" y="-0.5" width="375" height="219" rx="32.85" ry="32.85" fill="#0f8088" stroke="none" pointer-events="all"/></g></g><g data-cell-id="6cVsWqSMW9BJ6VjOZ-az-2"><g/><g data-cell-id="6cVsWqSMW9BJ6VjOZ-az-3"><g><rect x="233" y="55.5" width="120" height="120" fill="none" stroke="none" transform="rotate(90,293,115.5)" pointer-events="all"/></g></g><g data-cell-id="6cVsWqSMW9BJ6VjOZ-az-4"><g><rect x="231" y="105.5" width="80" height="20" rx="10" ry="10" fill="#ffffff" stroke="none" transform="rotate(45,271,115.5)" pointer-events="all"/></g></g><g data-cell-id="6cVsWqSMW9BJ6VjOZ-az-5"><g><rect x="274" y="105.5" width="80" height="20" rx="10" ry="10" fill="#ffffff" stroke="none" transform="rotate(-45,314,115.5)" pointer-events="all"/></g></g></g><g data-cell-id="6cVsWqSMW9BJ6VjOZ-az-6"><g><rect x="37" y="102.63" width="20" height="84" rx="3" ry="3" fill="rgb(255, 255, 255)" stroke="none" pointer-events="all"/></g></g><g data-cell-id="6cVsWqSMW9BJ6VjOZ-az-7"><g><path d="M 128 74.63 C 128 55.3 143.67 39.63 163 39.63 C 172.28 39.63 181.18 43.32 187.75 49.88 C 194.31 56.45 198 65.35 198 74.63 C 198 83.91 194.31 92.81 187.75 99.38 C 181.18 105.94 172.28 109.63 163 109.63 C 153.72 109.63 144.82 105.94 138.25 99.38 C 131.69 92.81 128 83.91 128 74.63 Z M 163 57.63 C 153.61 57.63 146 65.24 146 74.63 C 146 84.02 153.61 91.63 163 91.63 C 172.39 91.63 180 84.02 180 74.63 C 180 65.24 172.39 57.63 163 57.63 Z" fill="rgb(255, 255, 255)" stroke="none" pointer-events="all"/></g></g><g data-cell-id="6cVsWqSMW9BJ6VjOZ-az-8"><g><rect x="153" y="29.38" width="20" height="20" rx="3" ry="3" fill="rgb(255, 255, 255)" stroke="none" pointer-events="all"/></g></g><g data-cell-id="6cVsWqSMW9BJ6VjOZ-az-9"><g><rect x="153" y="99.88" width="20" height="20" rx="3" ry="3" fill="rgb(255, 255, 255)" stroke="none" pointer-events="all"/></g></g><g data-cell-id="6cVsWqSMW9BJ6VjOZ-az-10"><g><rect x="188" y="64.63" width="20" height="20" rx="3" ry="3" fill="rgb(255, 255, 255)" stroke="none" pointer-events="all"/></g></g><g data-cell-id="6cVsWqSMW9BJ6VjOZ-az-11"><g><rect x="118" y="64.63" width="20" height="20" rx="3" ry="3" fill="rgb(255, 255, 255)" stroke="none" pointer-events="all"/></g></g><g data-cell-id="6cVsWqSMW9BJ6VjOZ-az-12"><g/><g data-cell-id="6cVsWqSMW9BJ6VjOZ-az-13"><g><rect x="178" y="39.63" width="20" height="20" rx="3" ry="3" fill="rgb(255, 255, 255)" stroke="none" transform="rotate(-45,188,49.63)" pointer-events="all"/></g></g><g data-cell-id="6cVsWqSMW9BJ6VjOZ-az-14"><g><rect x="128" y="89.63" width="20" height="20" rx="3" ry="3" fill="rgb(255, 255, 255)" stroke="none" transform="rotate(-45,138,99.63)" pointer-events="all"/></g></g></g><g data-cell-id="6cVsWqSMW9BJ6VjOZ-az-15"><g/><g data-cell-id="6cVsWqSMW9BJ6VjOZ-az-16"><g><rect x="179" y="90.63" width="20" height="20" rx="3" ry="3" fill="rgb(255, 255, 255)" stroke="none" transform="rotate(45,189,100.63)" pointer-events="all"/></g></g><g data-cell-id="6cVsWqSMW9BJ6VjOZ-az-17"><g><rect x="129" y="40.63" width="20" height="20" rx="3" ry="3" fill="rgb(255, 255, 255)" stroke="none" transform="rotate(45,139,50.63)" pointer-events="all"/></g></g></g><g data-cell-id="6cVsWqSMW9BJ6VjOZ-az-18"><g><rect x="62" y="86.63" width="20" height="100" rx="3" ry="3" fill="rgb(255, 255, 255)" stroke="none" pointer-events="all"/></g></g><g data-cell-id="6cVsWqSMW9BJ6VjOZ-az-19"><g><rect x="87" y="66.63" width="20" height="120" rx="3" ry="3" fill="rgb(255, 255, 255)" stroke="none" pointer-events="all"/></g></g><g data-cell-id="6cVsWqSMW9BJ6VjOZ-az-20"><g><rect x="112" y="116.63" width="20" height="70" rx="3" ry="3" fill="rgb(255, 255, 255)" stroke="none" pointer-events="all"/></g></g><g data-cell-id="6cVsWqSMW9BJ6VjOZ-az-21"><g><rect x="137" y="146.63" width="20" height="40" rx="3" ry="3" fill="rgb(255, 255, 255)" stroke="none" pointer-events="all"/></g></g></g></g></g></svg>
