<?xml version="1.0" encoding="UTF-8"?>
<!DOCTYPE svg PUBLIC "-//W3C//DTD SVG 1.1//EN" "http://www.w3.org/Graphics/SVG/1.1/DTD/svg11.dtd">
<!-- File created by Marietta Hamberger, 2025. Licensed under CC BY 4.0 -->
<svg xmlns="http://www.w3.org/2000/svg" xmlns:xlink="http://www.w3.org/1999/xlink" version="1.1" width="375px" height="219px" viewBox="-0.5 -0.5 375 219"><defs/><g><g data-cell-id="0"><g data-cell-id="1"><g data-cell-id="rjtrArr-lTOHtSiKDt9N-1"><g><rect x="0" y="0" width="375" height="219" rx="32.85" ry="32.85" fill="#0f8088" stroke="none" pointer-events="all"/></g></g><g data-cell-id="rjtrArr-lTOHtSiKDt9N-2"><g/><g data-cell-id="rjtrArr-lTOHtSiKDt9N-3"><g><rect x="233" y="56" width="120" height="120" fill="none" stroke="none" transform="rotate(-90,293,116)" pointer-events="all"/></g></g><g data-cell-id="rjtrArr-lTOHtSiKDt9N-4"><g><rect x="275" y="106" width="80" height="20" rx="10" ry="10" fill="#ffffff" stroke="none" transform="rotate(-135,315,116)" pointer-events="all"/></g></g><g data-cell-id="rjtrArr-lTOHtSiKDt9N-5"><g><rect x="232" y="106" width="80" height="20" rx="10" ry="10" fill="#ffffff" stroke="none" transform="rotate(-225,272,116)" pointer-events="all"/></g></g></g><g data-cell-id="rjtrArr-lTOHtSiKDt9N-6"><g><rect x="37" y="103.13" width="20" height="84" rx="3" ry="3" fill="rgb(255, 255, 255)" stroke="none" pointer-events="all"/></g></g><g data-cell-id="rjtrArr-lTOHtSiKDt9N-7"><g><path d="M 128 75.13 C 128 55.8 143.67 40.13 163 40.13 C 172.28 40.13 181.18 43.82 187.75 50.38 C 194.31 56.95 198 65.85 198 75.13 C 198 84.41 194.31 93.31 187.75 99.88 C 181.18 106.44 172.28 110.13 163 110.13 C 153.72 110.13 144.82 106.44 138.25 99.88 C 131.69 93.31 128 84.41 128 75.13 Z M 163 58.13 C 153.61 58.13 146 65.74 146 75.13 C 146 84.52 153.61 92.13 163 92.13 C 172.39 92.13 180 84.52 180 75.13 C 180 65.74 172.39 58.13 163 58.13 Z" fill="rgb(255, 255, 255)" stroke="none" pointer-events="all"/></g></g><g data-cell-id="rjtrArr-lTOHtSiKDt9N-8"><g><rect x="153" y="29.88" width="20" height="20" rx="3" ry="3" fill="rgb(255, 255, 255)" stroke="none" pointer-events="all"/></g></g><g data-cell-id="rjtrArr-lTOHtSiKDt9N-9"><g><rect x="153" y="100.38" width="20" height="20" rx="3" ry="3" fill="rgb(255, 255, 255)" stroke="none" pointer-events="all"/></g></g><g data-cell-id="rjtrArr-lTOHtSiKDt9N-10"><g><rect x="188" y="65.13" width="20" height="20" rx="3" ry="3" fill="rgb(255, 255, 255)" stroke="none" pointer-events="all"/></g></g><g data-cell-id="rjtrArr-lTOHtSiKDt9N-11"><g><rect x="118" y="65.13" width="20" height="20" rx="3" ry="3" fill="rgb(255, 255, 255)" stroke="none" pointer-events="all"/></g></g><g data-cell-id="rjtrArr-lTOHtSiKDt9N-12"><g/><g data-cell-id="rjtrArr-lTOHtSiKDt9N-13"><g><rect x="178" y="40.13" width="20" height="20" rx="3" ry="3" fill="rgb(255, 255, 255)" stroke="none" transform="rotate(-45,188,50.13)" pointer-events="all"/></g></g><g data-cell-id="rjtrArr-lTOHtSiKDt9N-14"><g><rect x="128" y="90.13" width="20" height="20" rx="3" ry="3" fill="rgb(255, 255, 255)" stroke="none" transform="rotate(-45,138,100.13)" pointer-events="all"/></g></g></g><g data-cell-id="rjtrArr-lTOHtSiKDt9N-15"><g/><g data-cell-id="rjtrArr-lTOHtSiKDt9N-16"><g><rect x="179" y="91.13" width="20" height="20" rx="3" ry="3" fill="rgb(255, 255, 255)" stroke="none" transform="rotate(45,189,101.13)" pointer-events="all"/></g></g><g data-cell-id="rjtrArr-lTOHtSiKDt9N-17"><g><rect x="129" y="41.13" width="20" height="20" rx="3" ry="3" fill="rgb(255, 255, 255)" stroke="none" transform="rotate(45,139,51.13)" pointer-events="all"/></g></g></g><g data-cell-id="rjtrArr-lTOHtSiKDt9N-18"><g><rect x="62" y="87.13" width="20" height="100" rx="3" ry="3" fill="rgb(255, 255, 255)" stroke="none" pointer-events="all"/></g></g><g data-cell-id="rjtrArr-lTOHtSiKDt9N-19"><g><rect x="87" y="67.13" width="20" height="120" rx="3" ry="3" fill="rgb(255, 255, 255)" stroke="none" pointer-events="all"/></g></g><g data-cell-id="rjtrArr-lTOHtSiKDt9N-20"><g><rect x="112" y="117.13" width="20" height="70" rx="3" ry="3" fill="rgb(255, 255, 255)" stroke="none" pointer-events="all"/></g></g><g data-cell-id="rjtrArr-lTOHtSiKDt9N-21"><g><rect x="137" y="147.13" width="20" height="40" rx="3" ry="3" fill="rgb(255, 255, 255)" stroke="none" pointer-events="all"/></g></g></g></g></g></svg>
