<?xml version="1.0" encoding="UTF-8"?>
<!DOCTYPE svg PUBLIC "-//W3C//DTD SVG 1.1//EN" "http://www.w3.org/Graphics/SVG/1.1/DTD/svg11.dtd">
<!-- File created by Marietta Hamberger, 2025. Licensed under CC BY 4.0 -->
<svg xmlns="http://www.w3.org/2000/svg" xmlns:xlink="http://www.w3.org/1999/xlink" version="1.1" width="375px" height="219px" viewBox="-0.5 -0.5 375 219"><defs/><g><g data-cell-id="0"><g data-cell-id="1"><g data-cell-id="iejCcR-VwE50Z5a_Jrzq-1"><g><rect x="0" y="0" width="375" height="219" rx="32.85" ry="32.85" fill="#0f8088" stroke="none" pointer-events="all"/></g></g><g data-cell-id="iejCcR-VwE50Z5a_Jrzq-2"><g/><g data-cell-id="iejCcR-VwE50Z5a_Jrzq-3"><g><rect x="233" y="56" width="120" height="120" fill="none" stroke="none" transform="rotate(90,293,116)" pointer-events="all"/></g></g><g data-cell-id="iejCcR-VwE50Z5a_Jrzq-4"><g><rect x="231" y="106" width="80" height="20" rx="10" ry="10" fill="#ffffff" stroke="none" transform="rotate(45,271,116)" pointer-events="all"/></g></g><g data-cell-id="iejCcR-VwE50Z5a_Jrzq-5"><g><rect x="274" y="106" width="80" height="20" rx="10" ry="10" fill="#ffffff" stroke="none" transform="rotate(-45,314,116)" pointer-events="all"/></g></g></g><g data-cell-id="iejCcR-VwE50Z5a_Jrzq-6"><g><ellipse cx="139.54" cy="151" rx="60" ry="40" fill="#ffffff" stroke="none" pointer-events="all"/></g></g><g data-cell-id="iejCcR-VwE50Z5a_Jrzq-7"><g><path d="M 59.36 160.39 L 59.36 142.98 Q 59.36 125.57 74.28 134.72 L 101.19 151.23 Q 116.11 160.39 101.19 169.54 L 74.28 186.05 Q 59.36 195.2 59.36 177.79 Z" fill="#ffffff" stroke="none" transform="rotate(-90,87.73,160.39)" pointer-events="all"/></g></g><g data-cell-id="iejCcR-VwE50Z5a_Jrzq-8"><g><path d="M 180.17 176 Q 180.2 177 195.35 177 Q 210.5 177 210.5 129 Q 210.5 81 191.54 81" fill="none" stroke="#ffffff" stroke-width="6" stroke-linecap="round" stroke-miterlimit="10" pointer-events="stroke"/></g></g><g data-cell-id="iejCcR-VwE50Z5a_Jrzq-9"><g><path d="M 72.34 124.5 C 72.34 113.45 83.09 104.5 96.34 104.5 C 102.71 104.5 108.81 106.61 113.31 110.36 C 117.81 114.11 120.34 119.2 120.34 124.5 C 120.34 129.8 117.81 134.89 113.31 138.64 C 108.81 142.39 102.71 144.5 96.34 144.5 C 83.09 144.5 72.34 135.55 72.34 124.5 Z M 96.34 114.5 C 88.61 114.5 82.34 118.98 82.34 124.5 C 82.34 130.02 88.61 134.5 96.34 134.5 C 104.07 134.5 110.34 130.02 110.34 124.5 C 110.34 118.98 104.07 114.5 96.34 114.5 Z" fill="rgb(255, 255, 255)" stroke="none" transform="rotate(-30,96.34,124.5)" pointer-events="all"/></g></g><g data-cell-id="iejCcR-VwE50Z5a_Jrzq-10"><g><path d="M 101.8 -14.57 L 125.16 92.79 C 125.52 94.46 125.7 96.16 125.7 97.87 C 125.7 104.21 123.18 110.29 118.7 114.77 C 114.22 119.25 108.14 121.77 101.8 121.77 C 95.46 121.77 89.38 119.25 84.9 114.77 C 80.42 110.29 77.9 104.21 77.9 97.87 C 77.9 96.16 78.08 94.46 78.44 92.79 Z" fill="rgb(255, 255, 255)" stroke="none" transform="rotate(-90,101.8,53.6)" pointer-events="all"/></g></g><g data-cell-id="iejCcR-VwE50Z5a_Jrzq-11"><g><path d="M 28.29 61.25 L 28.29 57.75 Q 28.29 54.25 38.04 56.45 L 49.6 59.05 Q 59.36 61.25 49.6 63.45 L 38.04 66.05 Q 28.29 68.25 28.29 64.75 Z" fill="rgb(255, 255, 255)" stroke="none" transform="rotate(-210,43.82,61.25)" pointer-events="all"/></g></g><g data-cell-id="iejCcR-VwE50Z5a_Jrzq-12"><g><path d="M 144.66 48.67 L 144.66 40.71 Q 144.66 32.76 153.86 36.68 L 172.81 44.75 Q 182.01 48.67 172.81 52.59 L 153.86 60.66 Q 144.66 64.57 144.66 56.62 Z" fill="rgb(255, 255, 255)" stroke="none" transform="rotate(15,163.33,48.67)" pointer-events="all"/></g></g><g data-cell-id="iejCcR-VwE50Z5a_Jrzq-13"><g><path d="M 151.44 60.83 L 151.44 54.34 Q 151.44 47.85 159.63 51.59 L 171.64 57.09 Q 179.83 60.83 171.64 64.58 L 159.63 70.07 Q 151.44 73.82 151.44 67.33 Z" fill="rgb(255, 255, 255)" stroke="none" transform="rotate(344,165.64,60.83)" pointer-events="all"/></g></g><g data-cell-id="iejCcR-VwE50Z5a_Jrzq-14"><g><path d="M 73.12 34.86 L 73.12 28.37 Q 73.12 21.88 82.52 25.28 L 99.57 31.46 Q 108.97 34.86 99.57 38.27 L 82.52 44.44 Q 73.12 47.85 73.12 41.36 Z" fill="rgb(255, 255, 255)" stroke="none" transform="rotate(-135,91.04,34.86)" pointer-events="all"/></g></g><g data-cell-id="iejCcR-VwE50Z5a_Jrzq-15"><g><path d="M 22.4 52.56 L 22.4 49.06 Q 22.4 45.56 32.16 47.76 L 43.72 50.37 Q 53.48 52.56 43.72 54.76 L 32.16 57.37 Q 22.4 59.56 22.4 56.06 Z" fill="rgb(255, 255, 255)" stroke="none" transform="rotate(-165,37.94,52.56)" pointer-events="all"/></g></g><g data-cell-id="iejCcR-VwE50Z5a_Jrzq-16"><g><ellipse cx="148.04" cy="46.64" rx="4.183053048970362" ry="4.183053048970362" fill="#0f8088" stroke="none" pointer-events="all"/></g></g><g data-cell-id="iejCcR-VwE50Z5a_Jrzq-17"><g><path d="M 79.09 66.94 L 79.09 60.44 Q 79.09 53.95 88.49 57.36 L 105.54 63.53 Q 114.95 66.94 105.54 70.34 L 88.49 76.52 Q 79.09 79.92 79.09 73.43 Z" fill="rgb(255, 255, 255)" stroke="none" transform="rotate(-210,97.02,66.94)" pointer-events="all"/></g></g><g data-cell-id="iejCcR-VwE50Z5a_Jrzq-18"><g><ellipse cx="95.34" cy="163.18" rx="4.183053048970362" ry="4.183053048970362" fill="#0f8088" stroke="none" pointer-events="all"/></g></g></g></g></g></svg>
