<?xml version="1.0" encoding="UTF-8"?>
<!DOCTYPE svg PUBLIC "-//W3C//DTD SVG 1.1//EN" "http://www.w3.org/Graphics/SVG/1.1/DTD/svg11.dtd">
<!-- File created by Marietta Hamberger, 2025. Licensed under CC BY 4.0 -->
<svg xmlns="http://www.w3.org/2000/svg" xmlns:xlink="http://www.w3.org/1999/xlink" version="1.1" width="152px" height="157px" viewBox="-0.5 -0.5 152 157"><defs/><g><g data-cell-id="0"><g data-cell-id="1"><g data-cell-id="frtFxSxU4KQcibai_HqH-1"><g><rect x="0" y="0" width="152" height="157" fill="none" stroke="none" pointer-events="all"/></g></g><g data-cell-id="frtFxSxU4KQcibai_HqH-2"><g><path d="M 11 77 C 11 54.91 28.91 37 51 37 C 61.61 37 71.78 41.21 79.28 48.72 C 86.79 56.22 91 66.39 91 77 C 91 87.61 86.79 97.78 79.28 105.28 C 71.78 112.79 61.61 117 51 117 C 40.39 117 30.22 112.79 22.72 105.28 C 15.21 97.78 11 87.61 11 77 Z M 51 52 C 37.19 52 26 63.19 26 77 C 26 90.81 37.19 102 51 102 C 64.81 102 76 90.81 76 77 C 76 63.19 64.81 52 51 52 Z" fill="rgb(255, 255, 255)" stroke="none" pointer-events="all"/></g></g><g data-cell-id="frtFxSxU4KQcibai_HqH-3"><g><rect x="62" y="111" width="60" height="20" rx="9.4" ry="9.4" fill="rgb(255, 255, 255)" stroke="none" transform="rotate(45,92,121)" pointer-events="all"/></g></g><g data-cell-id="frtFxSxU4KQcibai_HqH-4"><g><rect x="82" y="27" width="60" height="20" rx="9.4" ry="9.4" fill="rgb(255, 255, 255)" stroke="none" pointer-events="all"/></g></g></g></g></g></svg>
